<?xml version="1.0" encoding="UTF-8"?>
<svg version="1.1" xmlns="http://www.w3.org/2000/svg" width="2592" height="1632">
<path d="M0 0 C21.16372215 -4.90315061 42.74915036 -4.4646726 64.35595703 -3.77990723 C74.4317707 -3.46570751 84.42808556 -3.6505971 94.50112152 -3.96967888 C142.2295931 -5.25348799 142.2295931 -5.25348799 159.43310547 3.39050293 C166.78169722 16.6675695 162.89688016 31.59083529 160.63232422 45.90270996 C159.47891626 52.5240727 159.47891626 52.5240727 159.43310547 58.39050293 C163.92579366 64.40414049 163.92579366 64.40414049 171.46435547 65.69519043 C179.06289648 66.04932057 179.06289648 66.04932057 186.93310547 65.26550293 C189.55634766 65.47819824 192.17958984 65.69089355 194.88232422 65.91003418 C204.29525606 65.64109327 207.73651894 65.14743848 214.43310547 58.39050293 C214.18929361 51.62477421 212.94504804 45.22402899 211.7909317 38.55511665 C209.9754658 26.25485061 208.71386237 14.77890064 214.43310547 3.39050293 C233.27183758 -7.79299655 259.94213399 -4.41461726 281.27163506 -3.99739981 C290.54964319 -3.85873055 299.82454351 -3.98711555 309.10266113 -4.07363892 C324.69111615 -4.17390982 340.26527685 -4.04143039 355.8515625 -3.77990723 C373.91315495 -3.4803622 391.94065159 -3.57731696 410.00141573 -3.88035953 C425.46499327 -4.12949977 440.91826265 -4.16545144 456.38319731 -4.02123272 C465.63891031 -3.93516076 474.87855799 -3.92471233 484.133255 -4.10573959 C531.45079565 -4.90857421 531.45079565 -4.90857421 545.43310547 3.39050293 C552.26324129 16.97401731 549.31692926 31.47961077 546.82507324 45.90270996 C545.54055374 52.52044418 545.54055374 52.52044418 545.43310547 58.39050293 C551.99160315 65.13730858 555.32185915 65.63920839 564.62841797 65.91003418 C567.20396484 65.69733887 569.77951172 65.48464355 572.43310547 65.26550293 C575.00865234 65.47819824 577.58419922 65.69089355 580.23779297 65.91003418 C589.55254698 65.63896991 592.84138059 65.11193975 599.43310547 58.39050293 C599.39664955 51.63555878 598.35833419 45.23610617 597.37526703 38.55511665 C595.80950401 26.44503228 594.66292987 14.87725936 599.43310547 3.39050293 C615.62693623 -8.11592939 641.22475321 -4.30168741 660.02685547 -3.91418457 C666.23738119 -3.95118993 672.44782958 -4.00453179 678.65808105 -4.07363892 C691.70498776 -4.15496986 704.73642022 -4.04143731 717.78027344 -3.77990723 C732.8994191 -3.48027981 747.97785565 -3.57723955 763.09601164 -3.88035953 C777.59500807 -4.15949824 792.07843293 -4.13072172 806.57868958 -3.96936417 C812.76379525 -3.93251027 818.94993254 -3.97829216 825.13383484 -4.10573959 C864.98346165 -4.74666088 864.98346165 -4.74666088 876.43310547 3.39050293 C882.13500391 17.14162004 879.49895133 31.58773647 877.38842773 45.90270996 C876.32049328 52.52934754 876.32049328 52.52934754 876.43310547 58.39050293 C883.16259448 65.1221392 886.56247643 65.64085103 895.98388672 65.91003418 C898.60712891 65.69733887 901.23037109 65.48464355 903.93310547 65.26550293 C906.55634766 65.47819824 909.17958984 65.69089355 911.88232422 65.91003418 C921.2865492 65.64134204 924.77024785 65.17344128 931.43310547 58.39050293 C931.14250032 52.51158338 931.14250032 52.51158338 929.63952637 45.90270996 C923.75774013 16.36946679 923.75774013 16.36946679 931.43310547 3.39050293 C953.79088422 -7.97547065 984.86473034 -4.40856752 1009.37773514 -3.99739981 C1020.19709802 -3.8587345 1031.01379519 -3.98711829 1041.83325195 -4.07363892 C1060.01024078 -4.17390048 1078.17496903 -4.04141566 1096.35009766 -3.77990723 C1117.40927293 -3.48041323 1138.4391957 -3.57736491 1159.49766064 -3.88035953 C1177.52979486 -4.12948706 1195.55308685 -4.16544073 1213.58638477 -4.02123272 C1224.37830043 -3.93517476 1235.1564347 -3.92473652 1245.94747925 -4.10573959 C1301.10868764 -4.90830456 1301.10868764 -4.90830456 1317.43310547 3.39050293 C1326.50202199 18.72594751 1321.17753607 36.3369977 1317.83023071 52.75001526 C1317.69917938 54.61137619 1317.56812805 56.47273712 1317.43310547 58.39050293 C1324.09596309 65.17344128 1327.57966173 65.64134204 1336.98388672 65.91003418 C1339.60712891 65.69733887 1342.23037109 65.48464355 1344.93310547 65.26550293 C1347.55634766 65.47819824 1350.17958984 65.69089355 1352.88232422 65.91003418 C1360.43031811 65.98082801 1360.43031811 65.98082801 1367.59912109 63.78845215 C1373.09234709 58.89689814 1373.09234709 58.89689814 1372.28540039 52.74749756 C1371.57041959 48.01423183 1370.83982737 43.28330753 1370.09667969 38.55438232 C1366.57565384 14.04675422 1366.57565384 14.04675422 1372.43310547 3.39050293 C1393.15658277 -7.08636615 1420.22800586 -4.50335123 1442.92871094 -3.77990723 C1452.94415693 -3.46569716 1462.87962909 -3.65058779 1472.89228058 -3.96967888 C1520.33500539 -5.25353655 1520.33500539 -5.25353655 1537.43310547 3.39050293 C1544.73510118 16.67476136 1540.86287586 31.59702373 1538.61474609 45.90270996 C1537.47047785 52.5244227 1537.47047785 52.5244227 1537.43310547 58.39050293 C1541.92753345 64.4036058 1541.92753345 64.4036058 1549.46435547 65.69519043 C1557.06289648 66.04932057 1557.06289648 66.04932057 1564.93310547 65.26550293 C1567.55634766 65.47819824 1570.17958984 65.69089355 1572.88232422 65.91003418 C1580.41453048 65.98576841 1580.41453048 65.98576841 1587.49365234 63.78845215 C1593.00682443 58.91364937 1593.00682443 58.91364937 1592.72045898 52.74749756 C1592.16597797 45.44568055 1591.43514545 38.1745125 1590.68310547 30.89050293 C1589.89521433 21.26306512 1589.2593294 12.61442682 1592.43310547 3.39050293 C1605.46475769 -6.49020017 1624.35137496 -4.45937181 1639.85742188 -3.77990723 C1647.95429489 -3.48372196 1655.88451745 -3.77446173 1663.97607422 -4.12902832 C1693.25521713 -4.32645353 1693.25521713 -4.32645353 1703.43310547 3.39050293 C1707.40227809 14.9260824 1705.62345293 26.62544364 1704.3918457 38.55438232 C1703.40955269 48.45957532 1703.40955269 48.45957532 1703.43310547 58.39050293 C1708.02116869 64.37477881 1708.02116869 64.37477881 1715.46435547 65.69519043 C1723.06289648 66.04932057 1723.06289648 66.04932057 1730.93310547 65.26550293 C1733.55634766 65.47819824 1736.17958984 65.69089355 1738.88232422 65.91003418 C1748.30389086 65.64084656 1751.7030091 65.12167285 1758.43310547 58.39050293 C1758.42184165 51.63120371 1757.38814141 45.24040649 1756.40567017 38.55511665 C1754.83582121 26.45079887 1753.68762021 14.8799877 1758.43310547 3.39050293 C1774.55180703 -8.10690019 1800.07483137 -4.30166775 1818.80810547 -3.91418457 C1824.99621137 -3.95118994 1831.18423965 -4.00453181 1837.37207031 -4.07363892 C1852.04254768 -4.16542211 1866.69139641 -3.97207273 1881.35870171 -3.68034661 C1893.08562181 -3.47367392 1904.78720723 -3.54668281 1916.51318359 -3.77990723 C1932.62659928 -4.09771613 1948.71539923 -4.14934545 1964.83087158 -3.96936417 C1970.99364877 -3.93251027 1977.15746131 -3.97829233 1983.31903076 -4.10573959 C2023.0252568 -4.74666832 2023.0252568 -4.74666832 2034.43310547 3.39050293 C2040.11393742 17.14459311 2037.4842275 31.58937335 2035.3807373 45.90270996 C2034.31680473 52.52951579 2034.31680473 52.52951579 2034.43310547 58.39050293 C2041.16320183 65.12167285 2044.56232008 65.64084656 2053.98388672 65.91003418 C2056.60712891 65.69733887 2059.23037109 65.48464355 2061.93310547 65.26550293 C2064.55634766 65.47819824 2067.17958984 65.69089355 2069.88232422 65.91003418 C2079.31245373 65.64060191 2082.66971203 65.09614443 2089.43310547 58.39050293 C2089.65392095 51.63845171 2088.83073816 45.25974818 2088.02040863 38.55511665 C2086.68500451 26.60956847 2085.68405025 14.96673446 2089.43310547 3.39050293 C2101.60857976 -7.48653351 2122.63297374 -4.30537947 2137.77685547 -3.91418457 C2142.73187703 -3.95119033 2147.68680166 -4.00453279 2152.64147949 -4.07363892 C2163.05543338 -4.15500649 2173.44353942 -4.0363472 2183.85449219 -3.77990723 C2197.25342715 -3.46606473 2210.5919335 -3.64640844 2223.98863983 -3.97639275 C2234.23074715 -4.17463461 2244.45835127 -4.11222343 2254.70088196 -3.96936417 C2259.63559524 -3.93251007 2264.57160127 -3.97830564 2269.50480652 -4.10573959 C2301.32399179 -4.747181 2301.32399179 -4.747181 2310.43310547 3.39050293 C2314.93841969 17.30189062 2312.67906738 31.66071743 2310.95776367 45.90270996 C2310.11425796 52.53916863 2310.11425796 52.53916863 2310.43310547 58.39050293 C2317.17750978 65.06893799 2320.59309052 65.61499336 2329.98388672 66.01745605 C2332.60712891 65.76931152 2335.23037109 65.52116699 2337.93310547 65.26550293 C2340.55634766 65.15915527 2343.17958984 65.05280762 2345.88232422 64.9432373 C2353.72254371 63.93520908 2358.87568952 62.83041998 2365.43310547 58.39050293 C2368.26587474 49.09547875 2366.76279323 40.39777043 2365.43310547 30.89050293 C2362.7967963 12.04089238 2362.7967963 12.04089238 2365.43310547 3.39050293 C2378.09408165 -5.18203303 2393.79336834 -4.2823613 2408.40185547 -2.19543457 C2415.27685547 -0.10070801 2415.27685547 -0.10070801 2420.43310547 3.39050293 C2423.95308518 14.94043636 2420.99974953 26.8389979 2419.35888672 38.57116699 C2418.71903709 45.87611687 2418.29110508 51.36206415 2420.43310547 58.39050293 C2433.09408165 66.96303888 2448.79336834 66.06336716 2463.40185547 63.97644043 C2470.27776027 62.25080587 2470.27776027 62.25080587 2475.43310547 58.39050293 C2477.50909195 51.5786723 2477.20530396 46.39723976 2476.39990234 39.34997559 C2476.08085937 36.55834961 2475.76181641 33.76672363 2475.43310547 30.89050293 C2474.93397051 27.60113659 2474.93397051 27.60113659 2474.42475202 24.24531841 C2473.72103272 16.67210056 2473.48106543 10.76093256 2475.43310547 3.39050293 C2487.2107201 -4.59195899 2503.10193359 -2.7272354 2516.68064702 -1.34744263 C2524.82781847 0.5969621 2529.2040847 2.1090582 2535.02326541 8.17645645 C2544.57259583 24.17270408 2548.77152955 42.47628725 2553.23065105 60.4111442 C2554.93741662 67.1066408 2556.8268365 73.74485576 2558.71822034 80.39014597 C2564.47359284 100.62135983 2569.7144978 120.96585813 2574.82934129 141.36697854 C2577.81537465 153.27103401 2580.89888812 165.14871484 2583.98889732 177.02612054 C2636.82942535 380.9093526 2670.99796014 588.07515341 2693.49011371 797.36962823 C2695.06382879 812.00977314 2696.68010402 826.64426757 2698.33509904 841.27544276 C2722.83770825 1058.23230171 2738.35396477 1302.6310995 2593.40006874 1574.49765309 C2464.67169802 1734.62641409 2150.02437592 1766.46145619 1915.80095446 1793.7199635 C1731.75381579 1813.63907912 1546.92245218 1820.16292326 1251.82848672 1818.87976067 C1238.29896624 1818.73838777 1224.76937782 1818.61857485 1211.23955828 1818.50984496 C1023.83170295 1816.98620349 836.65617271 1811.54157838 -124.52825346 1585.16514593 C-226.61988337 1477.94470638 -249.80819311 1320.15705364 -246.79744083 1177.61927904 C-245.12514411 1116.88685841 -237.16069735 1056.61307553 -228.58381844 996.53726429 C-226.92568106 984.90123024 -225.3435319 973.25550653 -223.76753235 961.60811281 C-200.72726143 792.17891825 -164.97218827 626.01604607 -111.89713693 463.38318799 C-108.85118474 453.99680467 -105.87572574 444.59027374 -102.91002655 435.17826617 C-98.29216718 420.63716348 -93.40974291 406.21445263 -88.2851624 391.84433082 C-86.45456385 386.61917249 -84.6998587 381.36669736 -83.02859466 376.08841667 C-72.59718482 343.52680752 -72.59718482 343.52680752 -61.56689453 334.39050293 C-47.53349247 329.99949522 -33.66137889 331.43497101 -19.26308119 333.03172439 C-13.04829405 333.77458788 -13.04829405 333.77458788 -7.56689453 333.39050293 C-0.99779127 326.74064462 -0.23352625 323.36607073 0.22021484 314.1072998 C0.06359375 311.54013184 -0.09302734 308.97296387 -0.25439453 306.32800293 C0.01050781 303.75696777 0.27541016 301.18593262 0.54833984 298.5369873 C0.4715127 289.75308442 -1.12401971 286.2173665 -6.56689453 279.39050293 C-12.48443316 278.55064019 -12.48443316 278.55064019 -19.02989197 279.93995667 C-48.81053155 283.52801849 -48.81053155 283.52801849 -61.56689453 279.39050293 C-72.44428716 267.21506926 -69.26278514 246.19095268 -68.87158203 231.04675293 C-68.90858779 226.09173137 -68.96193025 221.13680674 -69.03103638 216.18212891 C-69.11240395 205.76817502 -68.99374466 195.38006898 -68.73730469 184.96911621 C-68.42346219 171.57018125 -68.6038059 158.23167489 -68.93379021 144.83496857 C-69.13203207 134.59286125 -69.06962089 124.36525713 -68.92676163 114.12272644 C-68.88990753 109.18801316 -68.9357031 104.25200713 -69.06313705 99.31880188 C-69.62843554 71.27674354 -69.62843554 71.27674354 -61.56689453 58.39050293 C-49.65201067 55.12933106 -37.68069962 56.40509561 -25.60645866 58.29959869 C-15.99930166 59.78442013 -15.99930166 59.78442013 -6.56689453 58.39050293 C-4.2634769 49.12401378 -6.41812504 40.53643543 -8.31689453 31.32019043 C-11.497786 5.93633367 -11.497786 5.93633367 0 0 Z M955.43310547 270.39050293 C951.96810547 271.07112793 951.96810547 271.07112793 948.43310547 271.76550293 C938.47750449 274.07662458 921.41343576 278.4200075 915.43310547 287.39050293 C912.95810547 288.38050293 912.95810547 288.38050293 910.43310547 289.39050293 C910.43310547 290.05050293 910.43310547 290.71050293 910.43310547 291.39050293 C906.43664437 292.07806613 902.43633574 292.74351622 898.43310547 293.39050293 C897.44310547 294.05050293 896.45310547 294.71050293 895.43310547 295.39050293 C895.43310547 296.38050293 895.43310547 297.37050293 895.43310547 298.39050293 C891.96810547 298.88550293 891.96810547 298.88550293 888.43310547 299.39050293 C885.95810547 301.86550293 885.95810547 301.86550293 883.43310547 304.39050293 C878.43310547 308.39050293 878.43310547 308.39050293 871.43310547 311.39050293 C865.26478489 316.20480192 859.37428356 321.29806456 853.43310547 326.39050293 C847.43310547 331.39050293 847.43310547 331.39050293 844.43310547 332.39050293 C841.95810547 335.36050293 841.95810547 335.36050293 839.43310547 338.39050293 C836.09977214 341.72383626 832.7664388 345.0571696 829.43310547 348.39050293 C826.73250833 351.69640633 824.07209556 355.03521553 821.43310547 358.39050293 C819.59748047 360.70050293 817.76185547 363.01050293 815.87060547 365.39050293 C807.89408731 374.05405376 807.89408731 374.05405376 803.43310547 384.39050293 C802.77310547 384.39050293 802.11310547 384.39050293 801.43310547 384.39050293 C801.43310547 385.05050293 801.43310547 385.71050293 801.43310547 386.39050293 C800.77310547 386.39050293 800.11310547 386.39050293 799.43310547 386.39050293 C799.10310547 387.38050293 798.77310547 388.37050293 798.43310547 389.39050293 C796.45310547 391.37050293 796.45310547 391.37050293 794.43310547 393.39050293 C790.34341576 398.79630863 790.34341576 398.79630863 789.43310547 403.39050293 C788.44310547 404.38050293 787.45310547 405.37050293 786.43310547 406.39050293 C784.76331919 410.38920166 783.09695878 414.38933186 781.43310547 418.39050293 C779.78310547 421.03050293 778.13310547 423.67050293 776.43310547 426.39050293 C775.95873047 428.28800293 775.48435547 430.18550293 774.99560547 432.14050293 C773.31264416 438.87234816 770.52975904 444.19719579 767.43310547 450.39050293 C766.03848935 455.03922334 764.70664471 459.70716509 763.43310547 464.39050293 C762.54623047 466.80362793 761.65935547 469.21675293 760.74560547 471.70300293 C758.07011427 478.64473699 758.07011427 478.64473699 757.43310547 487.39050293 C757.10310547 487.72050293 756.77310547 488.05050293 756.43310547 488.39050293 C755.74630265 492.0534513 755.08294573 495.72081677 754.43310547 499.39050293 C753.77310547 502.36050293 753.11310547 505.33050293 752.43310547 508.39050293 C750.55699558 524.02762067 748.94060532 539.63049819 749.43310547 555.39050293 C749.46404297 557.65409668 749.49498047 559.91769043 749.52685547 562.24987793 C750.09873096 591.12959004 754.30658405 617.01093867 763.43310547 644.39050293 C764.09310547 647.03050293 764.75310547 649.67050293 765.43310547 652.39050293 C774.48977734 676.77385028 785.78691151 700.52891098 801.43310547 721.39050293 C802.63966797 723.64894043 802.63966797 723.64894043 803.87060547 725.95300293 C806.65428889 731.21540388 806.65428889 731.21540388 813.43310547 737.39050293 C814.42310547 739.04050293 815.41310547 740.69050293 816.43310547 742.39050293 C819.41112833 745.41232024 822.41330414 748.41043583 825.43310547 751.39050293 C826.48498047 752.60737793 827.53685547 753.82425293 828.62060547 755.07800293 C836.82046832 764.35325763 845.43610697 773.06875755 855.43310547 780.39050293 C857.43373047 781.95800293 859.43435547 783.52550293 861.49560547 785.14050293 C879.36529497 800.51372398 879.36529497 800.51372398 900.43310547 808.39050293 C900.43310547 809.05050293 900.43310547 809.71050293 900.43310547 810.39050293 C907.6021646 814.22511595 914.86196784 817.45112009 922.43310547 820.39050293 C925.34123047 821.62800293 928.24935547 822.86550293 931.24560547 824.14050293 C938.73949002 827.69795528 938.73949002 827.69795528 944.43310547 827.39050293 C943.77310547 827.06050293 943.11310547 826.73050293 942.43310547 826.39050293 C942.10310547 825.40050293 941.77310547 824.41050293 941.43310547 823.39050293 C934.58805747 819.09679101 927.66012717 815.05622747 920.55810547 811.20300293 C915.6359058 808.5017958 911.07236775 805.54777865 906.43310547 802.39050293 C904.76248047 801.35925293 903.09185547 800.32800293 901.37060547 799.26550293 C892.26504581 793.32292715 883.13551885 787.09291631 875.43310547 779.39050293 C874.44310547 779.39050293 873.45310547 779.39050293 872.43310547 779.39050293 C871.77310547 778.07050293 871.11310547 776.75050293 870.43310547 775.39050293 C868.12310547 773.74050293 865.81310547 772.09050293 863.43310547 770.39050293 C862.44310547 768.90550293 862.44310547 768.90550293 861.43310547 767.39050293 C860.77310547 767.39050293 860.11310547 767.39050293 859.43310547 767.39050293 C858.93810547 765.90550293 858.93810547 765.90550293 858.43310547 764.39050293 C853.96015175 759.39050293 853.96015175 759.39050293 849.43310547 757.39050293 C848.77310547 756.07050293 848.11310547 754.75050293 847.43310547 753.39050293 C846.19560547 752.04987793 844.95810547 750.70925293 843.68310547 749.32800293 C834.10347174 738.49389336 825.74461716 726.86250128 818.43310547 714.39050293 C815.89623047 710.18300293 815.89623047 710.18300293 813.30810547 705.89050293 C809.72423589 699.64170469 806.88425352 694.08402261 804.43310547 687.39050293 C803.11310547 684.75050293 801.79310547 682.11050293 800.43310547 679.39050293 C798.76377573 675.05819479 797.09683788 670.72496368 795.43310547 666.39050293 C794.77310547 665.40050293 794.11310547 664.41050293 793.43310547 663.39050293 C792.43310547 659.39050293 791.43310547 655.39050293 790.43310547 651.39050293 C789.77310547 650.40050293 789.11310547 649.41050293 788.43310547 648.39050293 C787.38744531 643.39985219 786.3974176 638.39750823 785.43310547 633.39050293 C784.10403686 627.3895568 782.7710081 621.3894857 781.43310547 615.39050293 C769.05453019 559.29576958 780.62280272 499.49289284 802.43310547 447.39050293 C803.42310547 444.42050293 803.42310547 444.42050293 804.43310547 441.39050293 C806.08238865 438.04853437 807.75043261 434.71578501 809.43310547 431.39050293 C810.75310547 428.42050293 812.07310547 425.45050293 813.43310547 422.39050293 C815.41310547 419.75050293 817.39310547 417.11050293 819.43310547 414.39050293 C819.43310547 413.73050293 819.43310547 413.07050293 819.43310547 412.39050293 C820.09310547 412.39050293 820.75310547 412.39050293 821.43310547 412.39050293 C823.81273462 408.75371121 826.14014797 405.08255314 828.43310547 401.39050293 C833.43310547 394.39050293 833.43310547 394.39050293 836.43310547 393.39050293 C837.42310547 391.08050293 838.41310547 388.77050293 839.43310547 386.39050293 C841.08310547 384.74050293 842.73310547 383.09050293 844.43310547 381.39050293 C844.43310547 380.73050293 844.43310547 380.07050293 844.43310547 379.39050293 C845.09310547 379.39050293 845.75310547 379.39050293 846.43310547 379.39050293 C846.43310547 378.73050293 846.43310547 378.07050293 846.43310547 377.39050293 C847.42310547 377.06050293 848.41310547 376.73050293 849.43310547 376.39050293 C849.43310547 375.73050293 849.43310547 375.07050293 849.43310547 374.39050293 C850.42310547 374.06050293 851.41310547 373.73050293 852.43310547 373.39050293 C854.77894716 370.73483309 857.11093836 368.06689892 859.43310547 365.39050293 C861.41310547 363.74050293 863.39310547 362.09050293 865.43310547 360.39050293 C865.43310547 359.73050293 865.43310547 359.07050293 865.43310547 358.39050293 C866.75310547 357.73050293 868.07310547 357.07050293 869.43310547 356.39050293 C869.43310547 355.73050293 869.43310547 355.07050293 869.43310547 354.39050293 C870.75310547 353.73050293 872.07310547 353.07050293 873.43310547 352.39050293 C873.92810547 350.90550293 873.92810547 350.90550293 874.43310547 349.39050293 C875.75310547 349.06050293 877.07310547 348.73050293 878.43310547 348.39050293 C878.43310547 347.73050293 878.43310547 347.07050293 878.43310547 346.39050293 C880.90810547 345.40050293 880.90810547 345.40050293 883.43310547 344.39050293 C887.12242941 341.75527155 890.78711278 339.08536709 894.43310547 336.39050293 C899.81789267 332.63532238 904.34623058 329.99916359 910.43310547 327.39050293 C910.43310547 326.73050293 910.43310547 326.07050293 910.43310547 325.39050293 C912.41310547 324.73050293 914.39310547 324.07050293 916.43310547 323.39050293 C919.07310547 321.74050293 921.71310547 320.09050293 924.43310547 318.39050293 C928.08625615 317.02057142 931.75319449 315.68683521 935.43310547 314.39050293 C938.07310547 313.07050293 940.71310547 311.75050293 943.43310547 310.39050293 C957.62896726 305.14895396 971.48016754 300.74265047 986.43310547 298.39050293 C988.74310547 297.73050293 991.05310547 297.07050293 993.43310547 296.39050293 C1014.70433379 293.97060196 1036.24951537 292.88908308 1057.43310547 296.39050293 C1059.25197266 296.65862793 1061.07083984 296.92675293 1062.94482422 297.20300293 C1082.368258 300.18167648 1100.03243874 304.81412717 1117.81982422 313.24206543 C1125.57588346 316.85411673 1131.86744627 319.31979553 1140.43310547 320.39050293 C1140.43310547 321.05050293 1140.43310547 321.71050293 1140.43310547 322.39050293 C1143.27730929 324.44317339 1146.18542059 326.40767975 1149.12060547 328.32800293 C1150.73322266 329.38890137 1152.34583984 330.4497998 1154.00732422 331.54284668 C1157.11673943 333.54352072 1160.26256558 335.488179 1163.43310547 337.39050293 C1170.1437787 341.86428508 1174.42526719 347.13070509 1179.43310547 353.39050293 C1180.58810547 354.40112793 1181.74310547 355.41175293 1182.93310547 356.45300293 C1190.32089171 362.91731589 1197.29798559 369.72160309 1203.43310547 377.39050293 C1204.42310547 378.38050293 1205.41310547 379.37050293 1206.43310547 380.39050293 C1206.76310547 381.05050293 1207.09310547 381.71050293 1207.43310547 382.39050293 C1208.42310547 382.39050293 1209.41310547 382.39050293 1210.43310547 382.39050293 C1211.09310547 383.71050293 1211.75310547 385.03050293 1212.43310547 386.39050293 C1214.08310547 388.04050293 1215.73310547 389.69050293 1217.43310547 391.39050293 C1217.76310547 392.71050293 1218.09310547 394.03050293 1218.43310547 395.39050293 C1219.91810547 396.87550293 1219.91810547 396.87550293 1221.43310547 398.39050293 C1222.09310547 399.71050293 1222.75310547 401.03050293 1223.43310547 402.39050293 C1224.09310547 402.39050293 1224.75310547 402.39050293 1225.43310547 402.39050293 C1226.09310547 404.37050293 1226.75310547 406.35050293 1227.43310547 408.39050293 C1228.09310547 408.39050293 1228.75310547 408.39050293 1229.43310547 408.39050293 C1230.09310547 410.04050293 1230.75310547 411.69050293 1231.43310547 413.39050293 C1233.07279297 417.10300293 1233.07279297 417.10300293 1234.74560547 420.89050293 C1237.02586933 426.14670438 1239.19610714 431.45407563 1241.18310547 436.82800293 C1241.92560547 438.66362793 1242.66810547 440.49925293 1243.43310547 442.39050293 C1244.42310547 442.72050293 1245.41310547 443.05050293 1246.43310547 443.39050293 C1246.76310547 445.04050293 1247.09310547 446.69050293 1247.43310547 448.39050293 C1248.42310547 451.36050293 1249.41310547 454.33050293 1250.43310547 457.39050293 C1251.09310547 457.39050293 1251.75310547 457.39050293 1252.43310547 457.39050293 C1252.76310547 460.36050293 1253.09310547 463.33050293 1253.43310547 466.39050293 C1254.05185547 468.22612793 1254.67060547 470.06175293 1255.30810547 471.95300293 C1257.74986071 479.35008498 1259.04103181 486.73409783 1260.43310547 494.39050293 C1261.09310547 496.04050293 1261.75310547 497.69050293 1262.43310547 499.39050293 C1264.80688659 516.58573724 1264.76839873 533.94262068 1264.74560547 551.26550293 C1264.76171875 553.7379248 1264.77783203 556.21034668 1264.79443359 558.75769043 C1264.79789758 571.7268483 1264.11931964 583.70363388 1261.43310547 596.39050293 C1261.43310547 597.71050293 1261.43310547 599.03050293 1261.43310547 600.39050293 C1260.77310547 600.39050293 1260.11310547 600.39050293 1259.43310547 600.39050293 C1258.33086969 604.698966 1257.35638422 609.04017718 1256.43310547 613.39050293 C1255.31201869 618.57885003 1254.18686659 623.76632002 1253.05810547 628.95300293 C1252.49349609 631.57366699 1251.92888672 634.19433105 1251.34716797 636.89440918 C1249.58476207 643.79656618 1247.28852959 649.88343066 1244.43310547 656.39050293 C1243.56685547 659.13362793 1242.70060547 661.87675293 1241.80810547 664.70300293 C1236.88738834 679.71749879 1229.45857435 693.66070325 1222.05810547 707.57800293 C1214.76163759 719.3838038 1214.76163759 719.3838038 1213.43310547 732.39050293 C1213.43310547 731.73050293 1213.43310547 731.07050293 1213.43310547 730.39050293 C1214.75310547 729.73050293 1216.07310547 729.07050293 1217.43310547 728.39050293 C1236.68372059 708.36986321 1249.75611613 682.31303241 1261.43310547 657.39050293 C1262.42310547 655.74050293 1263.41310547 654.09050293 1264.43310547 652.39050293 C1270.77931054 634.75423266 1276.85184799 616.80839852 1280.43310547 598.39050293 C1281.42310547 595.42050293 1282.41310547 592.45050293 1283.43310547 589.39050293 C1289.27241982 554.80379482 1289.08931713 519.98412513 1283.43310547 485.39050293 C1283.08634766 483.22487793 1282.73958984 481.05925293 1282.38232422 478.82800293 C1281.03280495 470.90804427 1279.60811033 463.7988476 1276.43310547 456.39050293 C1275.46333684 451.63863667 1274.49424495 446.88662524 1273.53466797 442.13269043 C1272.1574881 436.20397991 1269.97206051 430.91273014 1267.43310547 425.39050293 C1266.71123047 423.53425293 1265.98935547 421.67800293 1265.24560547 419.76550293 C1263.81077419 415.51308729 1263.81077419 415.51308729 1261.43310547 413.39050293 C1260.19560547 409.89456543 1260.19560547 409.89456543 1258.93310547 406.32800293 C1257.40604198 399.589536 1257.40604198 399.589536 1254.43310547 398.39050293 C1250.43310547 391.39050293 1250.43310547 391.39050293 1247.43310547 383.39050293 C1242.50800645 375.35100307 1237.33376485 367.73849386 1231.43310547 360.39050293 C1229.45310547 357.75050293 1227.47310547 355.11050293 1225.43310547 352.39050293 C1219.47078303 345.1109232 1213.62703677 338.44855034 1206.43310547 332.39050293 C1205.11310547 330.74050293 1203.79310547 329.09050293 1202.43310547 327.39050293 C1199.80901746 325.00938603 1197.13114747 322.68748463 1194.43310547 320.39050293 C1192.20560547 318.43112793 1189.97810547 316.47175293 1187.68310547 314.45300293 C1181.44941168 309.24034519 1175.27177952 304.74921826 1168.43310547 300.39050293 C1166.20560547 298.81269043 1166.20560547 298.81269043 1163.93310547 297.20300293 C1158.62210928 293.88363031 1153.25309657 291.70719841 1147.43310547 289.39050293 C1128.00453404 280.9619315 1128.00453404 280.9619315 1123.43310547 276.39050293 C1107.49882397 269.68133177 1091.50097992 266.58270699 1074.43310547 264.39050293 C1072.12310547 263.73050293 1069.81310547 263.07050293 1067.43310547 262.39050293 C1062.43367992 262.04866187 1057.43363858 261.71574086 1052.43310547 261.39050293 C1042.79207983 259.74947729 1042.79207983 259.74947729 1041.43310547 258.39050293 C1011.88924917 257.43128682 983.73534743 262.26671126 955.43310547 270.39050293 Z M1700.81201172 284.91589355 C1698.24464222 300.99251686 1700.3411649 317.4953263 1703.43310547 333.39050293 C1709.56528344 339.5226809 1730.84315146 337.854559 1739.04711914 338.30651855 C1746.4843294 338.06991107 1751.69860814 337.58516373 1758.43310547 334.39050293 C1766.60374911 321.55688549 1766.09248742 306.47841289 1763.98388672 291.84753418 C1761.51140208 283.72166195 1760.07738845 280.40448456 1752.79785156 275.91540527 C1738.15887828 271.46115895 1723.47555229 271.51225073 1708.83544922 275.9510498 C1703.03078516 278.97352078 1703.03078516 278.97352078 1700.81201172 284.91589355 Z M949.43310547 333.39050293 C949.43310547 334.05050293 949.43310547 334.71050293 949.43310547 335.39050293 C946.46310547 335.88550293 946.46310547 335.88550293 943.43310547 336.39050293 C940.0752705 338.00723829 936.74093731 339.67378007 933.43310547 341.39050293 C930.95810547 342.38050293 930.95810547 342.38050293 928.43310547 343.39050293 C908.62360372 353.2952538 884.87195046 368.73223544 872.43310547 387.39050293 C870.45310547 388.71050293 868.47310547 390.03050293 866.43310547 391.39050293 C849.54191224 408.53762333 835.3436013 431.00280373 826.49560547 453.26550293 C824.43310547 458.39050293 824.43310547 458.39050293 820.62060547 465.57800293 C814.82250036 477.77998532 809.43310547 490.7380878 809.43310547 504.39050293 C808.09977214 509.39050293 806.7664388 514.39050293 805.43310547 519.39050293 C805.43310547 521.70050293 805.43310547 524.01050293 805.43310547 526.39050293 C804.77310547 526.39050293 804.11310547 526.39050293 803.43310547 526.39050293 C798.97706992 562.28634487 799.34072383 600.43441018 809.43310547 635.39050293 C810.05185547 638.21612793 810.67060547 641.04175293 811.30810547 643.95300293 C813.08154902 650.99461704 814.99263321 656.11164106 818.43310547 662.39050293 C819.33029297 664.67987793 819.33029297 664.67987793 820.24560547 667.01550293 C823.2319133 674.3532879 826.84602913 681.33022569 830.43310547 688.39050293 C831.42310547 690.37050293 832.41310547 692.35050293 833.43310547 694.39050293 C834.09310547 694.39050293 834.75310547 694.39050293 835.43310547 694.39050293 C836.09310547 696.37050293 836.75310547 698.35050293 837.43310547 700.39050293 C840.72000257 704.75916363 844.05358753 709.09309122 847.43310547 713.39050293 C848.42310547 715.04050293 849.41310547 716.69050293 850.43310547 718.39050293 C856.98048405 727.21127685 863.94391963 735.35993016 871.43310547 743.39050293 C873.08310547 745.37050293 874.73310547 747.35050293 876.43310547 749.39050293 C877.91810547 750.54550293 879.40310547 751.70050293 880.93310547 752.89050293 C885.43310547 756.39050293 885.43310547 756.39050293 890.43310547 762.39050293 C893.20538612 764.57447984 896.0444794 766.67540963 898.93310547 768.70300293 C900.40779297 769.75101074 901.88248047 770.79901855 903.40185547 771.87878418 C907.378148 774.68466079 907.378148 774.68466079 912.43310547 775.39050293 C912.43310547 776.05050293 912.43310547 776.71050293 912.43310547 777.39050293 C920.91738196 782.92685284 929.31683745 787.96643169 938.43310547 792.39050293 C940.41310547 793.87550293 940.41310547 793.87550293 942.43310547 795.39050293 C944.41310547 795.39050293 946.39310547 795.39050293 948.43310547 795.39050293 C948.43310547 796.05050293 948.43310547 796.71050293 948.43310547 797.39050293 C949.09310547 797.39050293 949.75310547 797.39050293 950.43310547 797.39050293 C950.43310547 798.05050293 950.43310547 798.71050293 950.43310547 799.39050293 C960.10348326 804.70233628 960.10348326 804.70233628 970.43310547 808.39050293 C970.43310547 809.05050293 970.43310547 809.71050293 970.43310547 810.39050293 C973.40310547 811.71050293 976.37310547 813.03050293 979.43310547 814.39050293 C979.76310547 815.38050293 980.09310547 816.37050293 980.43310547 817.39050293 C982.08310547 818.05050293 983.73310547 818.71050293 985.43310547 819.39050293 C999.45414529 835.62539115 1001.19094715 853.88077681 1003.30810547 874.45690918 C1005.89972961 892.73325858 1014.02055607 903.97147571 1027.43310547 916.39050293 C1049.37518013 932.84705893 1072.91341172 941.49545756 1100.43310547 939.39050293 C1119.44108252 934.78170121 1137.24906008 924.53773924 1152.43310547 912.39050293 C1153.42310547 911.73050293 1154.41310547 911.07050293 1155.43310547 910.39050293 C1155.43310547 909.73050293 1155.43310547 909.07050293 1155.43310547 908.39050293 C1156.75310547 907.73050293 1158.07310547 907.07050293 1159.43310547 906.39050293 C1169.74350272 897.78443258 1169.74350272 897.78443258 1176.43310547 886.39050293 C1177.09310547 886.39050293 1177.75310547 886.39050293 1178.43310547 886.39050293 C1192.49324797 859.85765336 1196.98139273 837.53740435 1188.94091797 808.24987793 C1187.59145039 803.43709269 1187.59145039 803.43709269 1185.43310547 799.39050293 C1180.20342039 776.62599139 1177.93762355 751.87694868 1185.43310547 729.39050293 C1186.25810547 726.77112793 1187.08310547 724.15175293 1187.93310547 721.45300293 C1190.7729919 713.43032377 1194.1078712 705.98676576 1198.18310547 698.51550293 C1201.66746337 693.10446827 1201.66746337 693.10446827 1201.43310547 689.39050293 C1202.09310547 689.39050293 1202.75310547 689.39050293 1203.43310547 689.39050293 C1207.59848511 683.44479817 1207.59848511 683.44479817 1207.43310547 680.39050293 C1208.09310547 680.39050293 1208.75310547 680.39050293 1209.43310547 680.39050293 C1215.11291915 669.96199256 1218.98437421 659.7220485 1222.43310547 648.39050293 C1223.42310547 647.40050293 1224.41310547 646.41050293 1225.43310547 645.39050293 C1226.09310547 642.75050293 1226.75310547 640.11050293 1227.43310547 637.39050293 C1228.09310547 635.45175293 1228.75310547 633.51300293 1229.43310547 631.51550293 C1231.19840851 626.10926238 1232.38748767 620.96713117 1233.43310547 615.39050293 C1234.14466797 612.60612793 1234.14466797 612.60612793 1234.87060547 609.76550293 C1239.88278566 589.31580776 1241.76423776 569.12593596 1241.62060547 548.14050293 C1241.61996094 546.33581543 1241.61931641 544.53112793 1241.61865234 542.67175293 C1241.48898224 503.1367801 1231.65860042 466.94099251 1214.43310547 431.39050293 C1213.77310547 431.39050293 1213.11310547 431.39050293 1212.43310547 431.39050293 C1212.10310547 429.74050293 1211.77310547 428.09050293 1211.43310547 426.39050293 C1203.60532318 413.59270013 1195.12661079 400.864448 1185.43310547 389.39050293 C1184.44310547 389.39050293 1183.45310547 389.39050293 1182.43310547 389.39050293 C1181.77310547 388.07050293 1181.11310547 386.75050293 1180.43310547 385.39050293 C1177.53817897 381.96551947 1174.53967881 378.62474367 1171.43310547 375.39050293 C1170.44310547 375.39050293 1169.45310547 375.39050293 1168.43310547 375.39050293 C1168.43310547 374.73050293 1168.43310547 374.07050293 1168.43310547 373.39050293 C1166.45310547 371.41050293 1166.45310547 371.41050293 1164.43310547 369.39050293 C1163.44310547 369.39050293 1162.45310547 369.39050293 1161.43310547 369.39050293 C1161.10310547 368.07050293 1160.77310547 366.75050293 1160.43310547 365.39050293 C1155.97618432 362.13325505 1155.97618432 362.13325505 1152.43310547 362.39050293 C1151.77310547 361.07050293 1151.11310547 359.75050293 1150.43310547 358.39050293 C1143.84712082 352.6393614 1137.18474067 348.3913469 1129.43310547 344.39050293 C1126.87560547 343.00862793 1124.31810547 341.62675293 1121.68310547 340.20300293 C1115.28626722 336.83914833 1109.24533285 333.92091094 1102.30810547 331.89050293 C1097.43310547 330.39050293 1097.43310547 330.39050293 1092.43310547 327.39050293 C1044.34855834 313.37104731 996.21286282 315.84809392 949.43310547 333.39050293 Z M208.88232422 346.84753418 C206.77372351 361.47841289 206.26246183 376.55688549 214.43310547 389.39050293 C230.52644525 397.02474188 251.53455204 392.67762103 268.43310547 389.39050293 C274.56528344 383.25832496 272.89716154 361.98045693 273.34912109 353.77648926 C273.11251361 346.339279 272.62776627 341.12500026 269.43310547 334.39050293 C256.59948803 326.21985929 241.52101543 326.73112098 226.89013672 328.83972168 C215.78489344 332.21874889 212.26135143 335.7422909 208.88232422 346.84753418 Z M539.84716797 346.85144043 C537.68787089 361.64262543 537.36268482 376.35366957 545.43310547 389.39050293 C558.46993883 397.46092358 573.18098297 397.13573751 587.97216797 394.97644043 C596.09411866 392.48229809 599.42194549 391.02391521 603.92431641 383.75085449 C608.3996274 369.17740588 608.3996274 354.60359998 603.92431641 340.03015137 C599.42194549 332.75709065 596.09411866 331.29870777 587.97216797 328.80456543 C568.48134016 325.95918911 546.52722135 325.0984461 539.84716797 346.85144043 Z M2161.43310547 481.39050293 C2160.77310547 481.72050293 2160.11310547 482.05050293 2159.43310547 482.39050293 C2159.10310547 483.38050293 2158.77310547 484.37050293 2158.43310547 485.39050293 C2155.79933042 487.76090048 2153.12903075 490.09103725 2150.43310547 492.39050293 C2145.23698933 497.25975884 2145.23698933 497.25975884 2141.43310547 503.39050293 C2139.94810547 505.37050293 2139.94810547 505.37050293 2138.43310547 507.39050293 C2138.43310547 508.05050293 2138.43310547 508.71050293 2138.43310547 509.39050293 C2137.77310547 509.39050293 2137.11310547 509.39050293 2136.43310547 509.39050293 C2135.35029297 511.37050293 2135.35029297 511.37050293 2134.24560547 513.39050293 C2131.43147697 518.39339804 2128.19898709 522.08663822 2124.43310547 526.39050293 C2122.72570522 529.3675085 2121.06252705 532.37011171 2119.43310547 535.39050293 C2116.7849857 539.40280561 2114.11973855 543.4038861 2111.43310547 547.39050293 C2108.33328392 552.24386503 2108.33328392 552.24386503 2106.49560547 557.32800293 C2104.43310547 562.39050293 2104.43310547 562.39050293 2100.43310547 568.39050293 C2099.44310547 571.03050293 2098.45310547 573.67050293 2097.43310547 576.39050293 C2094.7664388 581.72383626 2092.09977214 587.0571696 2089.43310547 592.39050293 C2089.10310547 593.71050293 2088.77310547 595.03050293 2088.43310547 596.39050293 C2087.77310547 596.39050293 2087.11310547 596.39050293 2086.43310547 596.39050293 C2085.44310547 599.03050293 2084.45310547 601.67050293 2083.43310547 604.39050293 C2080.78471917 609.73293735 2078.11508673 615.06485442 2075.43310547 620.39050293 C2073.84045845 623.71939629 2072.2571608 627.05277835 2070.68310547 630.39050293 C2067.99352121 636.08609312 2065.24996937 641.75677513 2062.43310547 647.39050293 C2062.43310547 648.05050293 2062.43310547 648.71050293 2062.43310547 649.39050293 C2061.77310547 649.39050293 2061.11310547 649.39050293 2060.43310547 649.39050293 C2058.78310547 651.04050293 2057.13310547 652.69050293 2055.43310547 654.39050293 C2049.31084277 656.43125716 2044.2403297 655.71339262 2038.43310547 653.39050293 C2032.17017149 645.87498215 2032.43310547 645.1819095 2032.43310547 635.39050293 C2037.36700533 623.00540735 2043.57617904 611.51326756 2050.05810547 599.89050293 C2053.36607349 593.51960156 2055.88380578 587.09151926 2058.43310547 580.39050293 C2059.09310547 580.06050293 2059.75310547 579.73050293 2060.43310547 579.39050293 C2061.42310547 577.08050293 2062.41310547 574.77050293 2063.43310547 572.39050293 C2065.09632672 569.3885914 2066.76280367 566.38848053 2068.43310547 563.39050293 C2069.09310547 561.74050293 2069.75310547 560.09050293 2070.43310547 558.39050293 C2071.75310547 556.41050293 2073.07310547 554.43050293 2074.43310547 552.39050293 C2078.53858588 544.53426112 2078.53858588 544.53426112 2081.37060547 536.51550293 C2083.75388258 530.19252284 2086.19787395 524.30635485 2089.43310547 518.39050293 C2089.76310547 518.39050293 2090.09310547 518.39050293 2090.43310547 518.39050293 C2092.41284221 505.92980699 2093.01236888 493.96879424 2092.43310547 481.39050293 C2087.17585759 480.96175647 2087.17585759 480.96175647 2082.43310547 484.39050293 C2080.36545758 487.34428563 2078.36617555 490.34694579 2076.43310547 493.39050293 C2072.43310547 498.39050293 2072.43310547 498.39050293 2067.43310547 503.39050293 C2061.43727181 510.41419379 2056.29896496 517.55106263 2051.43310547 525.39050293 C2050.25748047 527.06112793 2049.08185547 528.73175293 2047.87060547 530.45300293 C2044.48052061 535.32239755 2041.46248474 540.28975322 2038.43310547 545.39050293 C2036.80501953 548.11687012 2036.80501953 548.11687012 2035.14404297 550.89831543 C2034.04318359 552.7519873 2032.94232422 554.60565918 2031.80810547 556.51550293 C2030.70208984 558.37433105 2029.59607422 560.23315918 2028.45654297 562.14831543 C2025.9602432 566.47652511 2023.66760369 570.92150648 2021.43310547 575.39050293 C2019.43945766 579.0606273 2017.43850737 582.72678792 2015.43310547 586.39050293 C2011.50287275 593.66436648 2007.69034517 600.79027695 2004.43310547 608.39050293 C2000.54529538 615.79585549 1996.58280503 623.12852869 1992.43310547 630.39050293 C1991.77310547 632.04050293 1991.11310547 633.69050293 1990.43310547 635.39050293 C1984.20423949 649.02349262 1984.20423949 649.02349262 1980.68310547 655.26550293 C1977.92361893 660.03564223 1977.92361893 660.03564223 1975.43310547 668.39050293 C1968.12875764 684.04267684 1968.12875764 684.04267684 1963.43310547 686.39050293 C1963.43310547 687.38050293 1963.43310547 688.37050293 1963.43310547 689.39050293 C1955.18355809 689.86190564 1950.10228154 689.67729267 1942.43310547 686.39050293 C1940.78310547 684.74050293 1939.13310547 683.09050293 1937.43310547 681.39050293 C1936.44310547 681.39050293 1935.45310547 681.39050293 1934.43310547 681.39050293 C1933.44310547 678.42050293 1932.45310547 675.45050293 1931.43310547 672.39050293 C1930.77310547 671.40050293 1930.11310547 670.41050293 1929.43310547 669.39050293 C1928.28161986 664.20881767 1927.14663914 659.02327729 1926.05810547 653.82800293 C1924.56312772 646.9348769 1924.56312772 646.9348769 1920.43310547 639.39050293 C1919.75248047 636.77112793 1919.07185547 634.15175293 1918.37060547 631.45300293 C1917.73123047 629.12237793 1917.09185547 626.79175293 1916.43310547 624.39050293 C1915.44310547 624.06050293 1914.45310547 623.73050293 1913.43310547 623.39050293 C1912.77310547 620.75050293 1912.11310547 618.11050293 1911.43310547 615.39050293 C1910.77310547 614.40050293 1910.11310547 613.41050293 1909.43310547 612.39050293 C1908.44310547 609.42050293 1907.45310547 606.45050293 1906.43310547 603.39050293 C1896.45248716 578.46032586 1896.45248716 578.46032586 1881.43310547 556.39050293 C1879.12310547 556.06050293 1876.81310547 555.73050293 1874.43310547 555.39050293 C1874.10310547 554.40050293 1873.77310547 553.41050293 1873.43310547 552.39050293 C1871.78310547 551.73050293 1870.13310547 551.07050293 1868.43310547 550.39050293 C1868.10310547 549.07050293 1867.77310547 547.75050293 1867.43310547 546.39050293 C1858.90744712 543.02157054 1858.90744712 543.02157054 1851.43310547 543.39050293 C1845.97203212 546.81127321 1845.97203212 546.81127321 1845.83935547 551.95300293 C1845.10569796 567.62770635 1845.10569796 567.62770635 1850.43310547 581.39050293 C1851.43559184 587.05673026 1852.43538223 592.72343495 1853.43310547 598.39050293 C1854.42310547 601.85550293 1854.42310547 601.85550293 1855.43310547 605.39050293 C1856.89933452 612.41618382 1858.27661771 619.43201543 1859.43310547 626.51550293 C1860.3569664 632.42437455 1860.3569664 632.42437455 1861.93310547 638.26550293 C1863.5709723 646.04537038 1864.29363785 653.65338839 1864.90576172 661.57019043 C1865.28159995 665.71833096 1865.78094281 669.85605587 1866.36279297 673.98034668 C1867.8059266 685.32000623 1868.64235592 696.68079503 1869.49560547 708.07800293 C1869.66898438 710.32290527 1869.84236328 712.56780762 1870.02099609 714.8807373 C1870.79829285 725.11067743 1871.50691535 735.3284414 1871.96435547 745.57800293 C1872.39032263 753.58618553 1873.61489837 760.60857655 1875.43310547 768.39050293 C1875.70123047 770.80362793 1875.96935547 773.21675293 1876.24560547 775.70300293 C1877.60297038 784.4901547 1880.25299503 792.09727375 1883.43310547 800.39050293 C1884.57779297 803.42237793 1884.57779297 803.42237793 1885.74560547 806.51550293 C1889.10086074 813.85024701 1893.16550565 820.55065117 1897.43310547 827.39050293 C1898.44373047 829.08175293 1899.45435547 830.77300293 1900.49560547 832.51550293 C1903.69571715 837.21397449 1903.69571715 837.21397449 1911.43310547 841.39050293 C1911.76310547 842.05050293 1912.09310547 842.71050293 1912.43310547 843.39050293 C1916.09275676 845.40331114 1919.76060655 847.40123268 1923.43310547 849.39050293 C1926.44574316 851.37141538 1929.44611302 853.37112775 1932.43310547 855.39050293 C1943.85990385 862.43441974 1955.59374738 868.93784254 1967.49560547 875.14050293 C1981.39485686 882.40704967 1994.97454963 890.2413361 2008.55810547 898.07800293 C2014.17123863 901.41384133 2014.17123863 901.41384133 2019.43310547 903.39050293 C2022.4860943 904.97301549 2025.52639904 906.58009106 2028.55810547 908.20300293 C2044.65813397 917.18779323 2044.65813397 917.18779323 2062.43310547 920.39050293 C2068.36773342 916.71736315 2068.36773342 916.71736315 2072.43310547 912.39050293 C2072.43310547 911.73050293 2072.43310547 911.07050293 2072.43310547 910.39050293 C2073.09310547 910.39050293 2073.75310547 910.39050293 2074.43310547 910.39050293 C2075.09310547 908.74050293 2075.75310547 907.09050293 2076.43310547 905.39050293 C2077.75310547 904.73050293 2079.07310547 904.07050293 2080.43310547 903.39050293 C2085.22965175 898.47984689 2085.22965175 898.47984689 2087.43310547 892.39050293 C2088.42310547 892.06050293 2089.41310547 891.73050293 2090.43310547 891.39050293 C2090.76310547 890.40050293 2091.09310547 889.41050293 2091.43310547 888.39050293 C2092.75310547 887.40050293 2094.07310547 886.41050293 2095.43310547 885.39050293 C2095.43310547 884.73050293 2095.43310547 884.07050293 2095.43310547 883.39050293 C2096.75310547 882.73050293 2098.07310547 882.07050293 2099.43310547 881.39050293 C2104.20924117 875.92857758 2104.20924117 875.92857758 2106.43310547 869.39050293 C2107.42310547 869.06050293 2108.41310547 868.73050293 2109.43310547 868.39050293 C2109.43310547 867.73050293 2109.43310547 867.07050293 2109.43310547 866.39050293 C2110.75310547 865.73050293 2112.07310547 865.07050293 2113.43310547 864.39050293 C2113.43310547 863.73050293 2113.43310547 863.07050293 2113.43310547 862.39050293 C2114.42310547 862.06050293 2115.41310547 861.73050293 2116.43310547 861.39050293 C2119.38308116 857.47929921 2122.32774577 853.56382421 2125.22998047 849.61706543 C2129.31349888 844.22881309 2133.81143328 839.32028659 2138.43310547 834.39050293 C2143.57812734 829.59186187 2143.57812734 829.59186187 2145.43310547 823.39050293 C2147.08310547 822.73050293 2148.73310547 822.07050293 2150.43310547 821.39050293 C2151.75310547 819.41050293 2153.07310547 817.43050293 2154.43310547 815.39050293 C2161.01002855 805.81357985 2161.01002855 805.81357985 2164.43310547 802.39050293 C2164.43310547 801.40050293 2164.43310547 800.41050293 2164.43310547 799.39050293 C2165.42310547 799.06050293 2166.41310547 798.73050293 2167.43310547 798.39050293 C2168.75310547 796.41050293 2170.07310547 794.43050293 2171.43310547 792.39050293 C2172.42310547 791.73050293 2173.41310547 791.07050293 2174.43310547 790.39050293 C2175.42310547 788.74050293 2176.41310547 787.09050293 2177.43310547 785.39050293 C2178.42310547 783.74050293 2179.41310547 782.09050293 2180.43310547 780.39050293 C2180.43310547 779.73050293 2180.43310547 779.07050293 2180.43310547 778.39050293 C2181.42310547 778.06050293 2182.41310547 777.73050293 2183.43310547 777.39050293 C2185.13579314 774.41079951 2186.79496347 771.40617343 2188.43310547 768.39050293 C2190.75792059 765.05122303 2193.09150805 761.71803611 2195.43310547 758.39050293 C2196.42310547 756.71987793 2197.41310547 755.04925293 2198.43310547 753.32800293 C2201.43310547 748.39050293 2201.43310547 748.39050293 2205.24560547 743.51550293 C2208.64255794 739.68964286 2208.64255794 739.68964286 2209.43310547 735.39050293 C2211.08310547 733.74050293 2212.73310547 732.09050293 2214.43310547 730.39050293 C2214.43310547 729.73050293 2214.43310547 729.07050293 2214.43310547 728.39050293 C2215.09310547 728.39050293 2215.75310547 728.39050293 2216.43310547 728.39050293 C2217.42310547 725.75050293 2218.41310547 723.11050293 2219.43310547 720.39050293 C2220.93000688 717.38859415 2222.47511995 714.4104219 2224.05810547 711.45300293 C2224.94884766 709.77851074 2225.83958984 708.10401855 2226.75732422 706.37878418 C2229.12528934 701.9643441 2231.49762176 697.5522473 2233.87060547 693.14050293 C2238.47085028 684.31811563 2242.79394524 675.40172034 2247.05029297 666.41003418 C2248.80339227 662.71702991 2250.6049021 659.04690966 2252.43310547 655.39050293 C2253.09310547 652.75050293 2253.75310547 650.11050293 2254.43310547 647.39050293 C2256.43310547 642.0571696 2258.43310547 636.72383626 2260.43310547 631.39050293 C2262.31976505 623.8438646 2263.3257317 618.09954762 2262.43310547 610.39050293 C2252.34299317 611.51162652 2248.4312938 614.45370334 2240.43310547 620.39050293 C2239.77310547 620.72050293 2239.11310547 621.05050293 2238.43310547 621.39050293 C2238.10310547 622.38050293 2237.77310547 623.37050293 2237.43310547 624.39050293 C2235.78310547 626.04050293 2234.13310547 627.69050293 2232.43310547 629.39050293 C2230.78310547 632.03050293 2229.13310547 634.67050293 2227.43310547 637.39050293 C2221.87754991 645.94605849 2221.87754991 645.94605849 2218.43310547 649.39050293 C2216.94810547 652.85550293 2216.94810547 652.85550293 2215.43310547 656.39050293 C2213.45310547 658.70050293 2211.47310547 661.01050293 2209.43310547 663.39050293 C2209.43310547 664.05050293 2209.43310547 664.71050293 2209.43310547 665.39050293 C2208.44310547 665.72050293 2207.45310547 666.05050293 2206.43310547 666.39050293 C2201.06130595 673.41607644 2201.06130595 673.41607644 2197.43310547 682.39050293 C2195.78310547 683.71050293 2194.13310547 685.03050293 2192.43310547 686.39050293 C2188.37161689 692.61204204 2188.37161689 692.61204204 2185.43310547 699.39050293 C2184.44310547 700.38050293 2183.45310547 701.37050293 2182.43310547 702.39050293 C2181.81435547 703.99925293 2181.19560547 705.60800293 2180.55810547 707.26550293 C2177.10542768 715.59254937 2172.42426473 718.96572039 2164.43310547 722.39050293 C2164.10310547 722.72050293 2163.77310547 723.05050293 2163.43310547 723.39050293 C2157.34297176 723.60800771 2153.13576035 723.67156488 2147.43310547 721.39050293 C2144.39715291 715.31859781 2143.43310547 711.24774415 2143.43310547 704.39050293 C2144.69800801 701.03060554 2146.02420747 697.69260761 2147.43310547 694.39050293 C2147.43310547 693.73050293 2147.43310547 693.07050293 2147.43310547 692.39050293 C2148.75310547 692.06050293 2150.07310547 691.73050293 2151.43310547 691.39050293 C2156.38552949 685.76013168 2156.38552949 685.76013168 2159.43310547 680.39050293 C2161.74310547 678.08050293 2164.05310547 675.77050293 2166.43310547 673.39050293 C2167.09310547 671.74050293 2167.75310547 670.09050293 2168.43310547 668.39050293 C2170.41310547 666.08050293 2172.39310547 663.77050293 2174.43310547 661.39050293 C2178.56218947 656.33957649 2178.56218947 656.33957649 2180.43310547 650.39050293 C2181.09310547 650.39050293 2181.75310547 650.39050293 2182.43310547 650.39050293 C2184.80850706 646.41534108 2187.13164498 642.40892601 2189.43310547 638.39050293 C2190.87685547 636.18362793 2192.32060547 633.97675293 2193.80810547 631.70300293 C2201.98163409 618.77999147 2208.64667617 605.07838575 2215.43310547 591.39050293 C2216.75310547 588.75050293 2218.07310547 586.11050293 2219.43310547 583.39050293 C2220.91810547 578.93550293 2220.91810547 578.93550293 2222.43310547 574.39050293 C2223.94904297 570.15206543 2223.94904297 570.15206543 2225.49560547 565.82800293 C2229.20862927 555.16293455 2230.85391701 546.64721154 2230.43310547 535.39050293 C2229.77310547 534.40050293 2229.11310547 533.41050293 2228.43310547 532.39050293 C2211.65633091 535.18663202 2198.77480157 550.6788348 2188.43310547 563.39050293 C2188.10310547 564.71050293 2187.77310547 566.03050293 2187.43310547 567.39050293 C2186.44310547 568.38050293 2185.45310547 569.37050293 2184.43310547 570.39050293 C2182.06297001 574.03348891 2179.73298697 577.70276189 2177.43310547 581.39050293 C2175.78310547 584.03050293 2174.13310547 586.67050293 2172.43310547 589.39050293 C2170.94810547 592.85550293 2170.94810547 592.85550293 2169.43310547 596.39050293 C2167.78310547 598.37050293 2166.13310547 600.35050293 2164.43310547 602.39050293 C2163.87623047 603.79300293 2163.31935547 605.19550293 2162.74560547 606.64050293 C2158.34534946 617.58168004 2152.02869707 627.6779972 2146.05810547 637.82800293 C2142.84428073 643.64613393 2140.68179287 649.16913446 2138.43310547 655.39050293 C2136.48526983 658.42463152 2134.49760316 661.4345176 2132.43310547 664.39050293 C2132.43310547 665.05050293 2132.43310547 665.71050293 2132.43310547 666.39050293 C2131.44310547 666.39050293 2130.45310547 666.39050293 2129.43310547 666.39050293 C2127.74002305 669.37567457 2126.07646695 672.37767356 2124.43310547 675.39050293 C2118.54674183 681.27686657 2118.54674183 681.27686657 2110.62060547 681.70300293 C2104.43310547 681.39050293 2104.43310547 681.39050293 2098.43310547 677.39050293 C2094.75164683 670.02758565 2094.59878169 664.98617691 2097.12060547 657.14050293 C2099.43310547 652.39050293 2099.43310547 652.39050293 2104.43310547 647.39050293 C2105.09310547 645.08050293 2105.75310547 642.77050293 2106.43310547 640.39050293 C2109.25386726 635.8892873 2112.24687935 631.63880442 2115.43310547 627.39050293 C2115.43310547 626.73050293 2115.43310547 626.07050293 2115.43310547 625.39050293 C2116.09310547 625.39050293 2116.75310547 625.39050293 2117.43310547 625.39050293 C2119.48389749 621.75200096 2121.47215123 618.07819908 2123.43310547 614.39050293 C2125.87082343 610.25328661 2128.32999643 606.12865298 2130.80810547 602.01550293 C2132.12294922 599.83054199 2133.43779297 597.64558105 2134.79248047 595.39440918 C2137.51969505 590.89684608 2140.280532 586.41964135 2143.05810547 581.95300293 C2146.14546239 576.86458134 2148.83132834 571.73860036 2151.43310547 566.39050293 C2152.75310547 564.08050293 2154.07310547 561.77050293 2155.43310547 559.39050293 C2156.91810547 555.92550293 2156.91810547 555.92550293 2158.43310547 552.39050293 C2159.54685547 550.20425293 2160.66060547 548.01800293 2161.80810547 545.76550293 C2165.78209663 537.84706701 2169.50766257 529.82669905 2173.18310547 521.76550293 C2174.27107422 519.3807373 2175.35904297 516.99597168 2176.47998047 514.53894043 C2181.4113803 502.6018218 2184.19581975 492.35664578 2183.43310547 479.39050293 C2181.93310547 475.39050293 2181.93310547 475.39050293 2179.43310547 474.39050293 C2170.41145327 474.39050293 2168.33433762 476.07468898 2161.43310547 481.39050293 Z M607.43310547 797.39050293 C600.75360011 815.20251723 602.91023351 835.19536702 610.43310547 852.39050293 C622.63983101 874.97294518 638.5562513 885.43155154 662.43310547 893.39050293 C681.41503042 898.13598417 700.78472554 892.66062357 717.43310547 883.39050293 C722.51223513 880.3411214 722.51223513 880.3411214 726.43310547 877.39050293 C726.43310547 876.73050293 726.43310547 876.07050293 726.43310547 875.39050293 C720.80646737 873.28051364 715.13398259 871.2907953 709.43310547 869.39050293 C706.79310547 868.07050293 704.15310547 866.75050293 701.43310547 865.39050293 C700.11310547 865.39050293 698.79310547 865.39050293 697.43310547 865.39050293 C697.43310547 864.73050293 697.43310547 864.07050293 697.43310547 863.39050293 C693.11060193 861.3672034 688.77531425 859.37115957 684.43310547 857.39050293 C681.71060547 855.75081543 681.71060547 855.75081543 678.93310547 854.07800293 C674.56009254 851.12607848 674.56009254 851.12607848 669.43310547 850.39050293 C669.10310547 849.40050293 668.77310547 848.41050293 668.43310547 847.39050293 C663.56579917 844.28965572 663.56579917 844.28965572 658.43310547 842.39050293 C656.12310547 840.08050293 653.81310547 837.77050293 651.43310547 835.39050293 C644.87170419 830.56328424 644.87170419 830.56328424 639.43310547 827.39050293 C637.78310547 825.41050293 636.13310547 823.43050293 634.43310547 821.39050293 C633.44310547 821.39050293 632.45310547 821.39050293 631.43310547 821.39050293 C630.77310547 820.07050293 630.11310547 818.75050293 629.43310547 817.39050293 C628.11310547 816.07050293 626.79310547 814.75050293 625.43310547 813.39050293 C624.44310547 813.39050293 623.45310547 813.39050293 622.43310547 813.39050293 C621.77310547 812.07050293 621.11310547 810.75050293 620.43310547 809.39050293 C619.11310547 808.07050293 617.79310547 806.75050293 616.43310547 805.39050293 C612.43310547 801.39050293 612.43310547 801.39050293 610.43310547 797.39050293 C609.44310547 797.39050293 608.45310547 797.39050293 607.43310547 797.39050293 Z M600.43310547 890.39050293 C597.61072846 894.62406844 594.96577692 898.9775148 592.43310547 903.39050293 C590.1025654 907.05894563 587.76904423 910.72549556 585.43310547 914.39050293 C578.76539691 924.54188239 578.76539691 924.54188239 573.43310547 935.39050293 C576.89810547 937.37050293 576.89810547 937.37050293 580.43310547 939.39050293 C589.45569331 944.64416167 597.15184836 949.9852532 604.24560547 957.76550293 C606.81341797 960.54987793 606.81341797 960.54987793 609.43310547 963.39050293 C610.42310547 963.39050293 611.41310547 963.39050293 612.43310547 963.39050293 C615.60460405 959.07649727 615.60460405 959.07649727 615.43310547 956.39050293 C616.09310547 956.39050293 616.75310547 956.39050293 617.43310547 956.39050293 C620.1384505 952.75228031 622.79787409 949.07982687 625.43310547 945.39050293 C626.79435547 943.71987793 628.15560547 942.04925293 629.55810547 940.32800293 C633.32028286 935.53426076 636.31267959 930.61382451 639.43310547 925.39050293 C642.40310547 921.92550293 642.40310547 921.92550293 645.43310547 918.39050293 C643.4077065 912.31430601 634.78238793 910.10759878 629.43310547 907.39050293 C627.12310547 906.40050293 624.81310547 905.41050293 622.43310547 904.39050293 C619.79310547 902.41050293 617.15310547 900.43050293 614.43310547 898.39050293 C613.77310547 898.39050293 613.11310547 898.39050293 612.43310547 898.39050293 C611.77310547 897.07050293 611.11310547 895.75050293 610.43310547 894.39050293 C605.84956883 889.86992372 605.84956883 889.86992372 600.43310547 890.39050293 Z M493.43310547 961.39050293 C488.60017874 966.36447397 488.60017874 966.36447397 489.43310547 974.39050293 C497.2754625 978.8718498 507.18773291 984.39050293 516.43310547 984.39050293 C516.43310547 985.05050293 516.43310547 985.71050293 516.43310547 986.39050293 C517.95935547 987.21550293 519.48560547 988.04050293 521.05810547 988.89050293 C530.11695894 993.86399111 538.36125499 999.68727451 546.12060547 1006.51550293 C549.07969041 1009.71823936 549.07969041 1009.71823936 552.43310547 1009.39050293 C553.42310547 1011.37050293 553.42310547 1011.37050293 554.43310547 1013.39050293 C556.74310547 1015.70050293 559.05310547 1018.01050293 561.43310547 1020.39050293 C563.43310547 1022.39050293 565.43310547 1024.39050293 567.43310547 1026.39050293 C576.05349569 1026.39050293 580.31664884 1024.13480735 587.43310547 1019.39050293 C594.43870333 1011.96232184 594.43870333 1011.96232184 596.87060547 1002.32800293 C595.75855536 987.23589437 585.93144339 978.36518962 575.18310547 968.64050293 C553.38625444 952.52978695 515.66862672 939.15498168 493.43310547 961.39050293 Z M448.87060547 1020.64050293 C443.79563781 1027.21651736 440.43310547 1031.92473809 440.43310547 1040.39050293 C445.14224077 1045.09963823 447.77018625 1045.48232482 454.18310547 1046.89050293 C461.17880828 1048.43582236 465.86738548 1050.10764294 472.43310547 1053.39050293 C474.74310547 1054.38050293 477.05310547 1055.37050293 479.43310547 1056.39050293 C494.7791738 1063.68368392 508.73630642 1072.38130362 522.43310547 1082.39050293 C530.43310547 1087.13585892 530.43310547 1087.13585892 540.43310547 1086.39050293 C548.83733151 1082.83515158 548.83733151 1082.83515158 554.43310547 1075.39050293 C555.30525809 1065.07155213 555.30525809 1065.07155213 552.43310547 1055.39050293 C551.77310547 1055.39050293 551.11310547 1055.39050293 550.43310547 1055.39050293 C549.44310547 1052.42050293 549.44310547 1052.42050293 548.43310547 1049.39050293 C542.77657869 1041.24588262 542.77657869 1041.24588262 535.43310547 1035.39050293 C534.11310547 1033.74050293 532.79310547 1032.09050293 531.43310547 1030.39050293 C518.17832808 1019.67387441 505.87440919 1011.26200033 489.43310547 1006.39050293 C488.77310547 1006.06050293 488.11310547 1005.73050293 487.43310547 1005.39050293 C469.9289768 1004.53960779 460.70401062 1007.02398193 448.87060547 1020.64050293 Z M399.43310547 1218.39050293 C393.76794684 1226.44761743 389.77425693 1235.57253902 385.43310547 1244.39050293 C383.79341797 1247.60800293 383.79341797 1247.60800293 382.12060547 1250.89050293 C378.39033953 1258.52453556 376.43310547 1263.81107775 376.43310547 1272.39050293 C382.54108406 1280.02547617 385.57177854 1281.29479994 395.43310547 1282.39050293 C402.56500731 1278.82455201 406.22536365 1276.15621709 411.43310547 1270.39050293 C411.43310547 1269.73050293 411.43310547 1269.07050293 411.43310547 1268.39050293 C412.09310547 1268.39050293 412.75310547 1268.39050293 413.43310547 1268.39050293 C419.93477964 1261.00115614 419.93477964 1261.00115614 423.43310547 1252.39050293 C424.09310547 1252.39050293 424.75310547 1252.39050293 425.43310547 1252.39050293 C429.7191014 1247.17440345 429.7191014 1247.17440345 433.43310547 1241.39050293 C432.7479943 1236.65939037 432.7479943 1236.65939037 426.68310547 1233.89050293 C424.62060547 1232.73550293 422.55810547 1231.58050293 420.43310547 1230.39050293 C417.95810547 1228.41050293 417.95810547 1228.41050293 415.43310547 1226.39050293 C409.25025603 1222.55393304 409.25025603 1222.55393304 405.43310547 1221.39050293 C405.10310547 1220.40050293 404.77310547 1219.41050293 404.43310547 1218.39050293 C402.78310547 1218.39050293 401.13310547 1218.39050293 399.43310547 1218.39050293 Z M2417.43310547 1475.39050293 C2416.11310547 1478.36050293 2414.79310547 1481.33050293 2413.43310547 1484.39050293 C2405.24221602 1500.93288749 2395.8201242 1510.80474854 2378.80810547 1518.07800293 C2376.37435547 1519.17112793 2373.94060547 1520.26425293 2371.43310547 1521.39050293 C2371.43310547 1522.71050293 2371.43310547 1524.03050293 2371.43310547 1525.39050293 C2374.72548773 1526.82197348 2378.07006453 1528.13398214 2381.43310547 1529.39050293 C2395.58334991 1536.1365497 2405.0611187 1545.58478225 2412.43310547 1559.39050293 C2413.45655427 1562.71671153 2414.46425878 1566.04798185 2415.43310547 1569.39050293 C2416.75310547 1570.05050293 2418.07310547 1570.71050293 2419.43310547 1571.39050293 C2420.75310547 1568.42050293 2422.07310547 1565.45050293 2423.43310547 1562.39050293 C2430.48393645 1547.36110005 2439.98683151 1537.4912173 2454.43310547 1529.39050293 C2457.75931407 1528.36705413 2461.09058438 1527.35934962 2464.43310547 1526.39050293 C2465.09310547 1525.07050293 2465.75310547 1523.75050293 2466.43310547 1522.39050293 C2462.84026904 1520.57013247 2459.15205424 1518.93699648 2455.43310547 1517.39050293 C2436.44175013 1508.00151827 2428.71214224 1495.33676016 2420.43310547 1476.39050293 C2419.44310547 1476.06050293 2418.45310547 1475.73050293 2417.43310547 1475.39050293 Z " fill="#8F837E" transform="translate(61.56689453125,-3.3905029296875)"/>
<path d="M0 0 C2.97 0.99 5.94 1.98 9 3 C40.03030303 18.03030303 40.03030303 18.03030303 50 28 C50 28.66 50 29.32 50 30 C51.65 30.33 53.3 30.66 55 31 C59 35 59 35 59 37 C60.32 37.33 61.64 37.66 63 38 C64.485 39.485 64.485 39.485 66 41 C66 41.66 66 42.32 66 43 C67.32 43.33 68.64 43.66 70 44 C78.67346939 53.02040816 78.67346939 53.02040816 80 57 C81.32 57.33 82.64 57.66 84 58 C110 90 110 90 110 99 C110.66 99 111.32 99 112 99 C117.45349214 109.10237069 121.59617968 119.05257788 125 130 C125.825 132.413125 126.65 134.82625 127.5 137.3125 C136.03549501 163.55914714 139.17768494 188.26784182 139.1875 215.75 C139.19974609 217.53921875 139.21199219 219.3284375 139.22460938 221.171875 C139.24140254 236.57680493 137.81222783 251.59033435 135 266.75 C134.67 268.55984375 134.34 270.3696875 134 272.234375 C133 277 133 277 131 283 C130.71125 284.52625 130.4225 286.0525 130.125 287.625 C128.87035719 293.61940452 126.99006635 299.21071607 125 305 C124.195625 307.8153125 124.195625 307.8153125 123.375 310.6875 C122.694375 312.8221875 122.694375 312.8221875 122 315 C121.34 315.33 120.68 315.66 120 316 C119.29875 318.330625 118.5975 320.66125 117.875 323.0625 C115.01385824 331.95691895 111.46389421 339.80399752 107 348 C106.34 348 105.68 348 105 348 C104.34 349.65 103.68 351.3 103 353 C102.34 354.32 101.68 355.64 101 357 C100.34 357 99.68 357 99 357 C98.67 358.65 98.34 360.3 98 362 C95.34695005 366.67442134 92.6799764 371.34096411 90 376 C89.34 377.98 88.68 379.96 88 382 C87.4534375 383.59328125 86.906875 385.1865625 86.34375 386.828125 C85.7353125 388.61734375 85.126875 390.4065625 84.5 392.25 C83.8915625 394.02890625 83.283125 395.8078125 82.65625 397.640625 C74.74379482 423.24413561 77.33170277 453.22498834 87 478 C94.91202648 505.03275715 89.75402834 527.53735547 77 552 C76.67 552.66 76.34 553.32 76 554 C75.34 554 74.68 554 74 554 C73.34 555.32 72.68 556.64 72 558 C66.80825934 564.68633267 61.65874818 570.74309354 55 576 C54.34 576 53.68 576 53 576 C52.67 576.99 52.34 577.98 52 579 C45.38152732 583.41231512 38.7060895 587.72197739 32 592 C30.411875 593.03125 28.82375 594.0625 27.1875 595.125 C7.33162459 606.12946107 -11.12979394 609.92004338 -33.3125 605.25 C-56.90755485 597.31147687 -79.23420184 585.22527706 -92.8125 563.5 C-98.8055996 551.17133797 -99.4275637 538.59770609 -100.83984375 525.171875 C-102.94794352 510.32290291 -107.37335959 498.55196849 -117 487 C-118.65 486.34 -120.3 485.68 -122 485 C-122.33 484.01 -122.66 483.02 -123 482 C-125.97 480.68 -128.94 479.36 -132 478 C-132 477.34 -132 476.68 -132 476 C-133.65 475.34 -135.3 474.68 -137 474 C-142.03542403 471.74413004 -147.03925453 469.41566736 -152 467 C-152 466.34 -152 465.68 -152 465 C-152.66 465 -153.32 465 -154 465 C-154 464.34 -154 463.68 -154 463 C-155.98 463 -157.96 463 -160 463 C-162.31 461.35 -164.62 459.7 -167 458 C-168.8975 457.05125 -170.795 456.1025 -172.75 455.125 C-178.8057607 452.09711965 -184.4139704 448.82202025 -190 445 C-190 444.34 -190 443.68 -190 443 C-191.65 442.67 -193.3 442.34 -195 442 C-213.04 429.7 -213.04 429.7 -220 421 C-222.64 419.02 -225.28 417.04 -228 415 C-230.39435044 412.38798133 -232.72373565 409.71554344 -235 407 C-236.44375 405.4325 -237.8875 403.865 -239.375 402.25 C-245.79578988 394.96153582 -251.48408235 387.38949731 -256.6875 379.1875 C-260.15938336 373.48378239 -260.15938336 373.48378239 -266 367 C-266.33 365.35 -266.66 363.7 -267 362 C-267.66 362 -268.32 362 -269 362 C-274.69893186 351.64560268 -279.63740052 341.4348862 -284 330.4375 C-286.82047324 323.15865156 -286.82047324 323.15865156 -290 317 C-291.04453831 312.34310001 -292.04097257 307.67525873 -293 303 C-293.47050781 301.36933594 -293.94101562 299.73867188 -294.42578125 298.05859375 C-303.13509511 264.53962155 -303.24297004 228.1794809 -299 194 C-298.34 194 -297.68 194 -297 194 C-297 191.69 -297 189.38 -297 187 C-295.66666667 182 -294.33333333 177 -293 172 C-293 169.69 -293 167.38 -293 165 C-289.63650835 151.13610786 -284.73078008 138.59307241 -278 126 C-277.175 124.185 -276.35 122.37 -275.5 120.5 C-264.29317383 95.84498243 -250.03180356 69.52385267 -228 53 C-226.68 51.02 -225.36 49.04 -224 47 C-206.59269103 30.25372808 -187.0351537 16.79340165 -165 7 C-162.36 5.68 -159.72 4.36 -157 3 C-155.68 3 -154.36 3 -153 3 C-153 2.34 -153 1.68 -153 1 C-106.56785656 -17.17978103 -45.86149735 -23.53952962 0 0 Z " fill="#878685" transform="translate(1164,329)"/>
<path d="M0 0 C4.39139177 4.39139177 3.96061534 4.36328137 4.375 11.0625 C3.19182006 36.10647548 -11.34428588 59.41534423 -23 81 C-24.33993137 84.33068654 -25.67455059 87.6635239 -27 91 C-28.65 93.64 -30.3 96.28 -32 99 C-32.9384375 100.7221875 -33.876875 102.444375 -34.84375 104.21875 C-39.41274239 112.58769646 -44.40345302 120.69025173 -49.34375 128.84375 C-52.70139166 134.49721502 -55.87451686 140.21605993 -59 146 C-60.485 148.475 -60.485 148.475 -62 151 C-62.66 151 -63.32 151 -64 151 C-64.66 152.32 -65.32 153.64 -66 155 C-71.33333333 164 -71.33333333 164 -74 168 C-74.66 169.98 -75.32 171.96 -76 174 C-77.65 175.65 -79.3 177.3 -81 179 C-84.47434165 187.84188612 -84.47434165 187.84188612 -84 197 C-80.01129699 204.92889318 -80.01129699 204.92889318 -75 207 C-66.03891485 207.53546595 -66.03891485 207.53546595 -58 204 C-52.86639372 198.30538578 -52.86639372 198.30538578 -50 192 C-49.01 192 -48.02 192 -47 192 C-46.34 190.68 -45.68 189.36 -45 188 C-43.9171875 185.89625 -43.9171875 185.89625 -42.8125 183.75 C-40.60036994 179.22742299 -38.55008768 174.6256586 -36.5625 170 C-33.70335367 163.57946086 -30.75128202 157.90627381 -27 152 C-22.04167944 143.90478276 -17.53024287 135.82560718 -14 127 C-12.35 125.02 -10.7 123.04 -9 121 C-8.13375 118.7415625 -8.13375 118.7415625 -7.25 116.4375 C-4.40746439 109.56803893 -0.31012888 104.03418043 4 98 C4.66 96.68 5.32 95.36 6 94 C6.66 93.67 7.32 93.34 8 93 C8.66 91.35 9.32 89.7 10 88 C20.2850365 75.97441886 30.43320171 64.47413257 45 58 C46.65 58.33 48.3 58.66 50 59 C54.52266833 68.04533665 49.79090806 81.09926617 47 90 C45.38384643 94.02067474 43.72296556 98.02392562 42 102 C40.515 106.455 40.515 106.455 39 111 C36.38329184 116.35802146 33.71670327 121.69197976 31 127 C29.02 130.96 29.02 130.96 27 135 C21.85213561 145.12327102 16.68562151 154.79150245 10 164 C8.1128125 167.279375 8.1128125 167.279375 6.1875 170.625 C5.135625 172.39875 4.08375 174.1725 3 176 C2.34 176 1.68 176 1 176 C0.34 177.65 -0.32 179.3 -1 181 C-8 191 -8 191 -12 195 C-12.66 196.65 -13.32 198.3 -14 200 C-16.64558728 202.68758073 -19.31274224 205.35408467 -22 208 C-23.485 210.475 -23.485 210.475 -25 213 C-26.32 214.65 -27.64 216.3 -29 218 C-29.99 218 -30.98 218 -32 218 C-32.66 219.98 -33.32 221.96 -34 224 C-34.66 225.98 -35.32 227.96 -36 230 C-36.45957252 237.19695965 -36.45957252 237.19695965 -33 244 C-32.67 244.99 -32.34 245.98 -32 247 C-26.23708471 249.30516612 -22.1631669 249.35420499 -16 249 C-14.68 248.01 -13.36 247.02 -12 246 C-10.35 245.34 -8.7 244.68 -7 244 C-1.38224011 238.38224011 1.49187986 233.52436043 4 226 C4.66 225.67 5.32 225.34 6 225 C8.00610832 221.33667175 10.00559175 217.66971118 12 214 C16 209 16 209 19 206 C20.2065625 203.586875 20.2065625 203.586875 21.4375 201.125 C24 196 24 196 28 191 C28.66 191 29.32 191 30 191 C30.66 189.68 31.32 188.36 32 187 C33.65 185.02 35.3 183.04 37 181 C37.99 178.36 38.98 175.72 40 173 C41.32 172.01 42.64 171.02 44 170 C45.72119062 167.03094617 47.38499919 164.02812651 49 161 C53 155 53 155 58 150 C58.33 149.01 58.66 148.02 59 147 C61.9517115 144.92939641 64.95813525 142.93573212 68 141 C69.98 139.68 71.96 138.36 74 137 C76.97 136.67 79.94 136.34 83 136 C85.02754357 149.8808752 79.3495933 162.47068937 74 175 C73.34 177.31 72.68 179.62 72 182 C70.34673719 185.67113409 68.63141611 189.31458599 66.875 192.9375 C65.39386719 195.99644531 65.39386719 195.99644531 63.8828125 199.1171875 C60.29766548 206.43321922 56.6679915 213.72515019 53 221 C51.824375 223.3925 50.64875 225.785 49.4375 228.25 C47.16107573 232.72006947 44.74369142 237.12130794 42.1875 241.4375 C38.6902774 247.0253592 38.6902774 247.0253592 37 254 C36.34 254 35.68 254 35 254 C34.34 255.65 33.68 257.3 33 259 C32.01 259.66 31.02 260.32 30 261 C28.515 264.465 28.515 264.465 27 268 C24.34379571 271.34167637 21.67654608 274.67459426 19 278 C17.29731233 280.97970342 15.63191584 283.9809557 14 287 C11.35188023 291.01230268 8.68663308 295.01338317 6 299 C5.01 300.65 4.02 302.3 3 304 C2.34 304 1.68 304 1 304 C0.34 305.98 -0.32 307.96 -1 310 C-1.99 310.99 -2.98 311.98 -4 313 C-4.66 314.32 -5.32 315.64 -6 317 C-7.65 318.65 -9.3 320.3 -11 322 C-11.66 322.99 -12.32 323.98 -13 325 C-13.66 325 -14.32 325 -15 325 C-15.33 326.32 -15.66 327.64 -16 329 C-17.65 330.98 -19.3 332.96 -21 335 C-22.175625 336.69125 -23.35125 338.3825 -24.5625 340.125 C-28 345 -28 345 -32 349 C-32.66 349 -33.32 349 -34 349 C-34.33 350.32 -34.66 351.64 -35 353 C-38.64055921 357.02377597 -42.31334618 361.01841388 -46 365 C-52.28034421 372.46947967 -58.32555431 380.05577604 -64 388 C-64.66 388 -65.32 388 -66 388 C-66.66 389.32 -67.32 390.64 -68 392 C-68.66 392 -69.32 392 -70 392 C-70.33 392.99 -70.66 393.98 -71 395 C-71.66 395 -72.32 395 -73 395 C-73.66 396.65 -74.32 398.3 -75 400 C-77.23539638 403.07367003 -79.56264648 406.08388061 -82 409 C-82.66 409 -83.32 409 -84 409 C-84.66 410.32 -85.32 411.64 -86 413 C-86.66 413.33 -87.32 413.66 -88 414 C-88.66 415.32 -89.32 416.64 -90 418 C-90.66 418 -91.32 418 -92 418 C-92.66 419.32 -93.32 420.64 -94 422 C-96.25450322 425.05968294 -98.58394071 428.06621372 -101 431 C-101.66 431 -102.32 431 -103 431 C-103.66 432.65 -104.32 434.3 -105 436 C-105.66 436 -106.32 436 -107 436 C-107.33 436.99 -107.66 437.98 -108 439 C-116.16666667 446 -116.16666667 446 -124 446 C-137.12885312 441.57764947 -149.27137342 435.33039161 -161 428 C-164.465 426.515 -164.465 426.515 -168 425 C-178.83447948 419.34790883 -189.52831087 413.48687549 -200 407.1875 C-207.49353911 402.70475785 -215.17943487 398.8799703 -223 395 C-235.7822231 388.00972174 -248.21055356 380.55292291 -260.3125 372.4375 C-263.74076113 369.94233961 -263.74076113 369.94233961 -267 369 C-268.98 367.02 -268.98 367.02 -271 365 C-273.475 363.515 -273.475 363.515 -276 362 C-278.44261449 358.40520886 -280.75834717 354.72342335 -283 351 C-284.4025 348.751875 -285.805 346.50375 -287.25 344.1875 C-291.56799448 337.0628091 -294.34739307 330.9578208 -297 323 C-297.825 320.89625 -298.65 318.7925 -299.5 316.625 C-302.39237852 307.8032455 -303.69717463 299.18181688 -305 290 C-305.34168213 288.37650635 -305.68336426 286.7530127 -306.03540039 285.08032227 C-307.03175767 279.8327397 -307.45985991 274.79675881 -307.74609375 269.46484375 C-307.85961182 267.45398682 -307.97312988 265.44312988 -308.09008789 263.37133789 C-308.20473389 261.24817139 -308.31937988 259.12500488 -308.4375 256.9375 C-311.38268878 200.05107349 -311.38268878 200.05107349 -321.5 144.125 C-323 138 -323 138 -324.0625 131.5625 C-324.79999894 125.98786963 -324.79999894 125.98786963 -327 121 C-327.309375 118.751875 -327.61875 116.50375 -327.9375 114.1875 C-328.78305387 106.72514144 -328.78305387 106.72514144 -332 99 C-333.05942184 93.70289079 -333.27743355 88.83742754 -333.375 83.4375 C-333.42398437 81.57996094 -333.47296875 79.72242188 -333.5234375 77.80859375 C-333.35070313 76.22175781 -333.17796875 74.63492188 -333 73 C-328 69 -328 69 -321 69 C-315.5625 70.8125 -315.5625 70.8125 -311 73 C-311 73.99 -311 74.98 -311 76 C-309.35 76.66 -307.7 77.32 -306 78 C-305.67 78.99 -305.34 79.98 -305 81 C-302.69 81.33 -300.38 81.66 -298 82 C-284.60100784 98.45192708 -274.83566234 119.57518181 -269 140 C-268.01 142.31 -267.02 144.62 -266 147 C-266 147.66 -266 148.32 -266 149 C-265.01 149.33 -264.02 149.66 -263 150 C-261.28926193 155.98758324 -259.62472761 161.98850784 -258 168 C-257.01 169.65 -256.02 171.3 -255 173 C-253.92139039 177.31443844 -252.92632054 181.65032093 -252 186 C-250.33793534 193.47929098 -248.4555723 198.36166373 -245 205 C-245 205.66 -245 206.32 -245 207 C-243.68 207.33 -242.36 207.66 -241 208 C-238.69 209.98 -236.38 211.96 -234 214 C-227.93594823 215.51601294 -222.21402638 215.28504708 -216 215 C-215.67 213.68 -215.34 212.36 -215 211 C-214.01 210.67 -213.02 210.34 -212 210 C-208.25086611 202.97781272 -204.73721621 196.06896161 -202.0625 188.5625 C-199.1167783 180.61797783 -195.0171912 173.46049794 -191 166 C-190.34 164.35 -189.68 162.7 -189 161 C-185.66951108 154.17655928 -182.18257433 147.45856874 -178.625 140.75 C-172.97044885 130.05220053 -167.58980022 119.23259377 -162.25 108.375 C-159 102 -159 102 -155 96 C-152.98719179 92.34034871 -150.98927025 88.67249892 -149 85 C-136.28697583 62.32844023 -122.50384622 38.50384622 -104 20 C-99.94196891 15.15623755 -99.94196891 15.15623755 -97 10 C-92 7 -92 7 -87 7 C-86.42262956 19.53718671 -86.85838191 31.60115841 -89 44 C-89.99 44.99 -90.98 45.98 -92 47 C-93.40799781 50.02889851 -94.73053181 53.09797988 -96 56.1875 C-96.680625 57.83105469 -97.36125 59.47460938 -98.0625 61.16796875 C-99.76816249 65.42180847 -101.39078028 69.70874741 -103 74 C-104.98670402 77.34127494 -106.98863515 80.67351198 -109 84 C-112.55807891 90.93523856 -115.92936585 97.83518698 -119 105 C-119.99 105.495 -119.99 105.495 -121 106 C-122.98392713 110.72835966 -124.96453421 115.45818032 -126.91796875 120.19921875 C-129.19544567 125.45066178 -131.99179999 130.13567657 -135 135 C-137.38357871 139.97624326 -139.71678082 144.97691781 -142 150 C-142.969375 151.959375 -143.93875 153.91875 -144.9375 155.9375 C-147.50306252 161.32370358 -147.50306252 161.32370358 -147 169 C-144.52613679 175.96905078 -144.52613679 175.96905078 -140 180 C-132.58530605 181.85367349 -127.75192719 181.3759636 -121 178 C-120.34 177.01 -119.68 176.02 -119 175 C-118.34 175 -117.68 175 -117 175 C-116.34 173.35 -115.68 171.7 -115 170 C-109.7640811 158.38252525 -104.41122561 146.81976406 -98.9375 135.3125 C-96.85748898 130.92136562 -94.80453478 126.51133696 -93 122 C-92.34 122 -91.68 122 -91 122 C-90.34 120.02 -89.68 118.04 -89 116 C-79.30873786 95.05436893 -79.30873786 95.05436893 -74.4375 86.5 C-71.6212664 81.54653809 -71.6212664 81.54653809 -69 74 C-66.71322412 70.63455625 -64.3763882 67.30277682 -62 64 C-59.98257564 60.67718341 -57.98054892 57.34492707 -56 54 C-52 48 -52 48 -46 41 C-45.01 39.02 -44.02 37.04 -43 35 C-42.34 35 -41.68 35 -41 35 C-40.34 33.35 -39.68 31.7 -39 30 C-38.01 29.01 -37.02 28.02 -36 27 C-34.02 23.535 -34.02 23.535 -32 20 C-28.47031579 16.68752713 -25.02625515 13.6841701 -21 11 C-20.67 10.01 -20.34 9.02 -20 8 C-8.8 0 -8.8 0 0 0 Z " fill="#888584" transform="translate(2241,471)"/>
<path d="M0 0 C5.30720997 1.18610963 5.30720997 1.18610963 12.0625 1.375 C19.14880597 1.93297685 25.15607759 3.21772854 32 5 C35.58875 5.4640625 35.58875 5.4640625 39.25 5.9375 C52.89406894 7.80805784 65.42770954 11.360094 78 17 C78.99 18.32 79.98 19.64 81 21 C85.96964188 23.07428531 90.97274426 25.0695338 96 27 C99.96 28.98 99.96 28.98 104 31 C106.64 31.99 109.28 32.98 112 34 C125.59473358 42.62970045 138.15455289 52.10218866 150 63 C151.423125 64.2375 152.84625 65.475 154.3125 66.75 C157.30848785 69.39053167 160.17614176 72.17614176 163 75 C164.258125 76.216875 165.51625 77.43375 166.8125 78.6875 C171.23050344 83.23738414 175.10747382 87.99532349 179 93 C180.175625 94.485 181.35125 95.97 182.5625 97.5 C191.3510225 109.00497491 199.1084153 120.74393443 205 134 C206.78918149 138.10540926 206.78918149 138.10540926 210 141 C211.33333333 145 212.66666667 149 214 153 C215.32 154.98 216.64 156.96 218 159 C223.54411772 171.5189755 226.99243545 184.68078557 230 198 C230.66 199.65 231.32 201.3 232 203 C241.41141548 246.57827034 247.24048646 298.13613182 232 341 C231.54625 343.145 231.0925 345.29 230.625 347.5 C226.05827844 368.57717644 219.00245028 388.89084126 209 408 C207.535625 410.825625 206.07125 413.65125 204.5625 416.5625 C194.26764051 435.60093879 182.86264032 454.14651699 168 470 C167.34 470 166.68 470 166 470 C165.67 470.66 165.34 471.32 165 472 C166.58016625 460.93883626 172.01128803 451.846565 177.25 442.0625 C185.52559381 426.57410269 192.77509846 410.78301708 198 394 C198.6290625 392.52917969 199.258125 391.05835938 199.90625 389.54296875 C202.49393784 382.69235486 204.00338081 375.84131087 205.5625 368.6875 C206.14128906 366.05136719 206.72007812 363.41523437 207.31640625 360.69921875 C208.4221635 355.6424959 209.51376517 350.58265281 210.58984375 345.51953125 C211.05519531 343.69808594 211.52054688 341.87664062 212 340 C212.66 340 213.32 340 214 340 C214.33 337.03 214.66 334.06 215 331 C215.34514648 329.09903564 215.69029297 327.19807129 216.04589844 325.23950195 C217.03311239 318.78345616 217.25886561 312.69632928 217.265625 306.16796875 C217.26949219 302.52411133 217.26949219 302.52411133 217.2734375 298.80664062 C217.26570313 296.29232422 217.25796875 293.77800781 217.25 291.1875 C217.25773437 288.71572266 217.26546875 286.24394531 217.2734375 283.69726562 C218.12319608 258.40053478 218.12319608 258.40053478 213 234 C212.566875 231.586875 212.13375 229.17375 211.6875 226.6875 C210.03703182 218.19064532 207.60672016 210.24287186 205 202 C205 200.35 205 198.7 205 197 C204.34 197 203.68 197 203 197 C199 187 199 187 199 183 C198.01 182.67 197.02 182.34 196 182 C193.97420895 176.67640957 191.97951983 171.34096861 190 166 C187.36350724 160.65168611 184.70389659 155.31455537 182 150 C182 149.34 182 148.68 182 148 C181.34 148 180.68 148 180 148 C179.34 146.02 178.68 144.04 178 142 C177.34 142 176.68 142 176 142 C175.01 140.02 174.02 138.04 173 136 C172.34 135.67 171.68 135.34 171 135 C170.34 133.35 169.68 131.7 169 130 C167.35 128.35 165.7 126.7 164 125 C163.67 124.01 163.34 123.02 163 122 C162.01 122 161.02 122 160 122 C159.34 120.68 158.68 119.36 158 118 C156.35 116.68 154.7 115.36 153 114 C150.66666667 111.33333333 148.33333333 108.66666667 146 106 C137.81904062 97.64843374 137.81904062 97.64843374 129 90 C127.02 87.36 125.04 84.72 123 82 C118.94061894 77.94061894 114.29012239 75.59435565 109.3125 72.75 C103.6580813 69.39093938 98.26050407 65.94537805 93 62 C93 61.34 93 60.68 93 60 C89.04 59.505 89.04 59.505 85 59 C77.92639917 56.42674182 71.15535247 53.2517696 64.3125 50.125 C25.03289168 33.03598295 -24.42536571 27.92706508 -66 39 C-67.7325 39.28875 -69.465 39.5775 -71.25 39.875 C-91.76597665 43.88899543 -112.61032879 52.42426497 -130.75 62.6875 C-135 65 -135 65 -137 65 C-137 65.66 -137 66.32 -137 67 C-139.31 67.99 -141.62 68.98 -144 70 C-149.65627995 73.56780735 -155.01442865 77.45580558 -160.4375 81.375 C-167 86 -167 86 -169 86 C-169 86.66 -169 87.32 -169 88 C-170.32 88.33 -171.64 88.66 -173 89 C-173.99 90.98 -173.99 90.98 -175 93 C-176.485 93.495 -176.485 93.495 -178 94 C-178.99 95.98 -178.99 95.98 -180 98 C-180.66 98 -181.32 98 -182 98 C-182.99 99.98 -182.99 99.98 -184 102 C-186.65071416 104.35143998 -189.31828702 106.68397516 -192 109 C-193.32 110.65 -194.64 112.3 -196 114 C-196.66 114 -197.32 114 -198 114 C-198.495 115.485 -198.495 115.485 -199 117 C-199.66 117 -200.32 117 -201 117 C-201 117.66 -201 118.32 -201 119 C-201.66 119 -202.32 119 -203 119 C-203.66 120.65 -204.32 122.3 -205 124 C-206.32 125.32 -207.64 126.64 -209 128 C-209.66 129.65 -210.32 131.3 -211 133 C-211.99 133.33 -212.98 133.66 -214 134 C-218.23431076 139.88098717 -222.27130119 145.78550199 -226 152 C-226.66 152 -227.32 152 -228 152 C-228.66 153.32 -229.32 154.64 -230 156 C-230.928125 157.299375 -231.85625 158.59875 -232.8125 159.9375 C-236.45438225 165.72166593 -238.61205241 171.61062673 -241 178 C-241.99 179.32 -242.98 180.64 -244 182 C-244.4125 183.381875 -244.825 184.76375 -245.25 186.1875 C-247 192 -247 192 -250.1875 199.375 C-257.22003666 216.1575291 -261.80640168 234.11584942 -265 252 C-265.70606443 255.41713626 -266.41454586 258.8337737 -267.125 262.25 C-274.31713348 299.64909409 -269.97129867 338.28095748 -261.33984375 374.98046875 C-260 381 -260 381 -259 388 C-257.68 390.97 -256.36 393.94 -255 397 C-254.01 400.96 -254.01 400.96 -253 405 C-251.68 407.97 -250.36 410.94 -249 414 C-247.7625 417.0009375 -247.7625 417.0009375 -246.5 420.0625 C-242.87231917 428.67824198 -238.50355639 436.82007105 -234 445 C-233.236875 446.423125 -232.47375 447.84625 -231.6875 449.3125 C-222.32844396 465.63643495 -211.34422039 481.65577961 -198 495 C-198 495.66 -198 496.32 -198 497 C-196.68 497.66 -195.36 498.32 -194 499 C-189 504 -189 504 -188 507 C-187.01 507.33 -186.02 507.66 -185 508 C-183.35 509.65 -181.7 511.3 -180 513 C-178.35 514.32 -176.7 515.64 -175 517 C-175 517.66 -175 518.32 -175 519 C-173.68 519.33 -172.36 519.66 -171 520 C-168.32721028 522.32631698 -165.66220463 524.66157701 -163 527 C-154.24330652 533.46522229 -145.30511607 539.36053571 -136 545 C-134.47375 546.03125 -132.9475 547.0625 -131.375 548.125 C-126.3982786 551.39541692 -121.22933712 554.15291646 -116 557 C-112.28319483 559.2526092 -108.60174582 561.56765217 -105 564 C-105 564.66 -105 565.32 -105 566 C-104.34 566.33 -103.68 566.66 -103 567 C-114.79779058 565.31460135 -125.39538303 560.30230849 -136 555 C-137.98 554.13375 -139.96 553.2675 -142 552.375 C-143.65 551.59125 -145.3 550.8075 -147 550 C-147 549.34 -147 548.68 -147 548 C-148.65 547.67 -150.3 547.34 -152 547 C-162.01238533 541.70419288 -171.09780966 535.98774081 -180 529 C-182.165625 527.35 -184.33125 525.7 -186.5625 524 C-188.686875 522.35 -190.81125 520.7 -193 519 C-194.7325 517.659375 -196.465 516.31875 -198.25 514.9375 C-208.96408716 505.73735994 -218.73080199 495.64200578 -228 485 C-229.65 483.35 -231.3 481.7 -233 480 C-233.99 478.35 -234.98 476.7 -236 475 C-237.670625 473.1128125 -237.670625 473.1128125 -239.375 471.1875 C-243 467 -243 467 -248 459 C-249.0725 457.35 -250.145 455.7 -251.25 454 C-266.82620708 429.07806867 -278.97063103 403.30352563 -287 375 C-287.74443359 372.64488281 -287.74443359 372.64488281 -288.50390625 370.2421875 C-296.11172207 345.56922091 -297.64887702 320.69049818 -298 295 C-298.0825 292.36 -298.165 289.72 -298.25 287 C-297.71211994 269.78783797 -296.38105397 252.67854328 -292 236 C-291.505 232.04 -291.505 232.04 -291 228 C-290.67 227.67 -290.34 227.34 -290 227 C-289.67 224.03 -289.34 221.06 -289 218 C-287.03284331 212.65446551 -285.03112838 207.32155635 -283 202 C-282.505 199.9375 -282.01 197.875 -281.5 195.75 C-279.81129621 189.27663549 -276.98648652 183.97297305 -274 178 C-273.505 175.97875 -273.01 173.9575 -272.5 171.875 C-270.90040109 165.60990429 -268.41043575 161.45669719 -265 156 C-263.32522867 152.00338659 -261.65685777 148.00407294 -260 144 C-259.34 143.67 -258.68 143.34 -258 143 C-257.34 141.35 -256.68 139.7 -256 138 C-251 130 -251 130 -249 129 C-248.67 128.01 -248.34 127.02 -248 126 C-247.34 126 -246.68 126 -246 126 C-246 125.34 -246 124.68 -246 124 C-245.34 124 -244.68 124 -244 124 C-243.34 122.35 -242.68 120.7 -242 119 C-236.68674427 111.35636895 -230.90031463 104.19353428 -225 97 C-223.4325 94.875625 -221.865 92.75125 -220.25 90.5625 C-216 85 -216 85 -211 81 C-206.11785113 76.35355339 -206.11785113 76.35355339 -203 72 C-200.69 70.68 -198.38 69.36 -196 68 C-191.99277571 64.34123 -187.99336297 60.67389393 -184 57 C-177.96255146 52.32584629 -173.03532597 49.0151397 -166 46 C-164.68 44.35 -163.36 42.7 -162 41 C-155 38 -155 38 -152 38 C-152 37.01 -152 36.02 -152 35 C-149 33 -149 33 -141 32 C-139.68 31.67 -138.36 31.34 -137 31 C-137 30.34 -137 29.68 -137 29 C-134.525 28.01 -134.525 28.01 -132 27 C-130.68 25.68 -129.36 24.36 -128 23 C-124.72307232 21.22499751 -121.37812522 19.57389925 -118 18 C-116.2675 17.175 -114.535 16.35 -112.75 15.5 C-104.93038641 12.60384682 -97.12285237 10.84281859 -88.9765625 9.11328125 C-83.77764461 8.03865278 -83.77764461 8.03865278 -78 6 C-23.29862754 -7.76620918 -23.29862754 -7.76620918 0 0 Z " fill="#867E7B" transform="translate(1109,257)"/>
<path d="M0 0 C1.60875 0.7425 3.2175 1.485 4.875 2.25 C9.33 4.23 9.33 4.23 13.875 6.25 C26.34773861 13.48726808 37.50011393 22.31263292 46.875 33.25 C48.525 34.57 50.175 35.89 51.875 37.25 C56.875 45.47222222 56.875 45.47222222 56.875 48.25 C57.535 48.25 58.195 48.25 58.875 48.25 C62.19790799 54.89581597 61.37184969 60.96287116 60.875 68.25 C56.70721733 74.79937277 54.14003503 76.13641356 46.875 79.25 C36.40240441 79.25 32.13199147 77.6223765 23.8125 71.5625 C13.70191382 64.21902162 2.87369383 58.15173815 -8.125 52.25 C-9.671875 51.363125 -11.21875 50.47625 -12.8125 49.5625 C-17.61631949 46.86341602 -17.61631949 46.86341602 -25.125 44.25 C-27.435 43.26 -29.745 42.27 -32.125 41.25 C-36.4253125 40.2909375 -36.4253125 40.2909375 -40.8125 39.3125 C-49.125 37.25 -49.125 37.25 -53.125 33.25 C-53.125 24.15663092 -48.69925672 18.2178209 -43.125 11.25 C-29.94015259 -1.25287254 -18.34013597 -5.24003885 0 0 Z " fill="#918C8A" transform="translate(555.125,1003.75)"/>
<path d="M0 0 C1.32 0.33 2.64 0.66 4 1 C4.99 2.65 5.98 4.3 7 6 C8.381875 7.381875 9.76375 8.76375 11.1875 10.1875 C12.445625 11.445625 13.70375 12.70375 15 14 C15 14.66 15 15.32 15 16 C16.32 16.33 17.64 16.66 19 17 C24 22 24 22 24 24 C25.32 24.33 26.64 24.66 28 25 C29.98 27.31 31.96 29.62 34 32 C36.31 33.32 38.62 34.64 41 36 C42.588125 37.464375 44.17625 38.92875 45.8125 40.4375 C50.7232236 44.75657016 55.15456964 47.20077983 61 50 C61.33 50.99 61.66 51.98 62 53 C63.98 53.66 65.96 54.32 68 55 C69.52625 55.928125 71.0525 56.85625 72.625 57.8125 C78.06636588 61.21051173 78.06636588 61.21051173 84.625 63.75 C86.39875 64.4925 88.1725 65.235 90 66 C90 66.66 90 67.32 90 68 C91.65 68.33 93.3 68.66 95 69 C96.69125 69.78375 98.3825 70.5675 100.125 71.375 C105.71284046 73.87169468 111.08043599 75.5013762 117 77 C117.66 77.33 118.32 77.66 119 78 C119 78.66 119 79.32 119 80 C104.14097555 90.52514232 88.4159701 97.3006652 70.0625 97.25 C68.19722656 97.25515625 66.33195313 97.2603125 64.41015625 97.265625 C54.10182384 96.75951193 46.15408339 93.39754986 37 89 C34.69 88.01 32.38 87.02 30 86 C13.49025224 73.01660613 1.29607075 57.97840732 -3 37 C-3.84348474 24.12828576 -4.56393241 12.17048641 0 0 Z " fill="#8E8884" transform="translate(669,794)"/>
<path d="M0 0 C22.84964682 19.76185671 22.84964682 19.76185671 24.625 35.5625 C23.48612449 45.4707169 18.41380672 49.64530852 11 56 C4.68568499 59.78858901 2.50006569 60 -5 60 C-9.64253878 56.28596898 -13.14739947 52.49470062 -17 48 C-17.99 47.01 -18.98 46.02 -20 45 C-20 44.34 -20 43.68 -20 43 C-21.32 42.67 -22.64 42.34 -24 42 C-26.5678125 39.834375 -26.5678125 39.834375 -29.1875 37.625 C-41.64842695 27.20285518 -41.64842695 27.20285518 -56 20 C-56 19.34 -56 18.68 -56 18 C-57.98 17.67 -59.96 17.34 -62 17 C-79.09302326 10.60465116 -79.09302326 10.60465116 -83 8 C-83 0 -83 0 -78 -7 C-54.17117302 -24.54066431 -22.96323582 -14.55705128 0 0 Z " fill="#928C89" transform="translate(634,963)"/>
<path d="M0 0 C0.99 0.33 1.98 0.66 3 1 C4.0725 3.454375 5.145 5.90875 6.25 8.4375 C12.67339504 23.104252 21.00815846 32.96213358 35 41 C37.371875 41.886875 39.74375 42.77375 42.1875 43.6875 C44.105625 44.450625 46.02375 45.21375 48 46 C48 47.32 48 48.64 48 50 C45.36 50.99 42.72 51.98 40 53 C26.07434161 59.34586965 15.29023743 68.37042567 8 82 C7.13375 84.35125 6.2675 86.7025 5.375 89.125 C4.59125 91.06375 3.8075 93.0025 3 95 C1.68 95 0.36 95 -1 95 C-1.99 92.36 -2.98 89.72 -4 87 C-10.0938666 72.98410683 -18.75975765 63.5889194 -32 56 C-33.65 55.01 -35.3 54.02 -37 53 C-39.97 52.01 -42.94 51.02 -46 50 C-46 48.68 -46 47.36 -46 46 C-40.68964241 43.61483939 -35.35273017 41.28848609 -30 39 C-14.49577658 29.24453358 -7.88664513 17.4959174 -1 1 C-0.67 0.67 -0.34 0.34 0 0 Z " fill="#C7C7C7" transform="translate(2479,1472)"/>
<path d="M0 0 C14.791185 -2.15929708 29.50222914 -2.48448315 42.5390625 5.5859375 C50.60948315 18.62277086 50.28429708 33.333815 48.125 48.125 C45.63085766 56.24695069 44.17247478 59.57477752 36.89941406 64.07714844 C22.32596545 68.55245943 7.75215955 68.55245943 -6.82128906 64.07714844 C-14.09434978 59.57477752 -15.55273266 56.24695069 -18.046875 48.125 C-20.89225132 28.63417219 -21.75299433 6.68005338 0 0 Z " fill="#969695" transform="translate(619.4609375,325.4140625)"/>
<path d="M0 0 C14.791185 -2.15929708 29.50222914 -2.48448315 42.5390625 5.5859375 C50.60948315 18.62277086 50.28429708 33.333815 48.125 48.125 C45.63085766 56.24695069 44.17247478 59.57477752 36.89941406 64.07714844 C22.32596545 68.55245943 7.75215955 68.55245943 -6.82128906 64.07714844 C-14.09434978 59.57477752 -15.55273266 56.24695069 -18.046875 48.125 C-20.89225132 28.63417219 -21.75299433 6.68005338 0 0 Z " fill="#979796" transform="translate(2494.4609375,-5.5859375)"/>
<path d="M0 0 C14.791185 -2.15929708 29.50222914 -2.48448315 42.5390625 5.5859375 C50.60948315 18.62277086 50.28429708 33.333815 48.125 48.125 C45.63085766 56.24695069 44.17247478 59.57477752 36.89941406 64.07714844 C22.32596545 68.55245943 7.75215955 68.55245943 -6.82128906 64.07714844 C-14.09434978 59.57477752 -15.55273266 56.24695069 -18.046875 48.125 C-20.89225132 28.63417219 -21.75299433 6.68005338 0 0 Z " fill="#969696" transform="translate(2384.4609375,-5.5859375)"/>
<path d="M0 0 C14.791185 -2.15929708 29.50222914 -2.48448315 42.5390625 5.5859375 C50.60948315 18.62277086 50.28429708 33.333815 48.125 48.125 C45.63085766 56.24695069 44.17247478 59.57477752 36.89941406 64.07714844 C22.32596545 68.55245943 7.75215955 68.55245943 -6.82128906 64.07714844 C-14.09434978 59.57477752 -15.55273266 56.24695069 -18.046875 48.125 C-20.89225132 28.63417219 -21.75299433 6.68005338 0 0 Z " fill="#696969" transform="translate(2108.4609375,-5.5859375)"/>
<path d="M0 0 C14.791185 -2.15929708 29.50222914 -2.48448315 42.5390625 5.5859375 C50.60948315 18.62277086 50.28429708 33.333815 48.125 48.125 C45.63085766 56.24695069 44.17247478 59.57477752 36.89941406 64.07714844 C22.32596545 68.55245943 7.75215955 68.55245943 -6.82128906 64.07714844 C-14.09434978 59.57477752 -15.55273266 56.24695069 -18.046875 48.125 C-20.89225132 28.63417219 -21.75299433 6.68005338 0 0 Z " fill="#686868" transform="translate(1777.4609375,-5.5859375)"/>
<path d="M0 0 C14.791185 -2.15929708 29.50222914 -2.48448315 42.5390625 5.5859375 C50.60948315 18.62277086 50.28429708 33.333815 48.125 48.125 C45.63085766 56.24695069 44.17247478 59.57477752 36.89941406 64.07714844 C22.32596545 68.55245943 7.75215955 68.55245943 -6.82128906 64.07714844 C-14.09434978 59.57477752 -15.55273266 56.24695069 -18.046875 48.125 C-20.89225132 28.63417219 -21.75299433 6.68005338 0 0 Z " fill="#979796" transform="translate(1611.4609375,-5.5859375)"/>
<path d="M0 0 C14.791185 -2.15929708 29.50222914 -2.48448315 42.5390625 5.5859375 C50.60948315 18.62277086 50.28429708 33.333815 48.125 48.125 C45.63085766 56.24695069 44.17247478 59.57477752 36.89941406 64.07714844 C22.32596545 68.55245943 7.75215955 68.55245943 -6.82128906 64.07714844 C-14.09434978 59.57477752 -15.55273266 56.24695069 -18.046875 48.125 C-20.89225132 28.63417219 -21.75299433 6.68005338 0 0 Z " fill="#969695" transform="translate(1391.4609375,-5.5859375)"/>
<path d="M0 0 C14.791185 -2.15929708 29.50222914 -2.48448315 42.5390625 5.5859375 C50.60948315 18.62277086 50.28429708 33.333815 48.125 48.125 C45.63085766 56.24695069 44.17247478 59.57477752 36.89941406 64.07714844 C22.32596545 68.55245943 7.75215955 68.55245943 -6.82128906 64.07714844 C-14.09434978 59.57477752 -15.55273266 56.24695069 -18.046875 48.125 C-20.89225132 28.63417219 -21.75299433 6.68005338 0 0 Z " fill="#969696" transform="translate(950.4609375,-5.5859375)"/>
<path d="M0 0 C14.791185 -2.15929708 29.50222914 -2.48448315 42.5390625 5.5859375 C50.60948315 18.62277086 50.28429708 33.333815 48.125 48.125 C45.63085766 56.24695069 44.17247478 59.57477752 36.89941406 64.07714844 C22.32596545 68.55245943 7.75215955 68.55245943 -6.82128906 64.07714844 C-14.09434978 59.57477752 -15.55273266 56.24695069 -18.046875 48.125 C-20.89225132 28.63417219 -21.75299433 6.68005338 0 0 Z " fill="#686868" transform="translate(233.4609375,-5.5859375)"/>
<path d="M0 0 C14.791185 -2.15929708 29.50222914 -2.48448315 42.5390625 5.5859375 C50.60948315 18.62277086 50.28429708 33.333815 48.125 48.125 C45.63085766 56.24695069 44.17247478 59.57477752 36.89941406 64.07714844 C22.32596545 68.55245943 7.75215955 68.55245943 -6.82128906 64.07714844 C-14.09434978 59.57477752 -15.55273266 56.24695069 -18.046875 48.125 C-20.89225132 28.63417219 -21.75299433 6.68005338 0 0 Z " fill="#686868" transform="translate(12.4609375,-5.5859375)"/>
<path d="M0 0 C14.63087871 -2.1086007 29.70935131 -2.61986239 42.54296875 5.55078125 C50.1772077 21.64412103 45.83008685 42.65222782 42.54296875 59.55078125 C36.41079078 65.68295922 15.13292275 64.01483732 6.92895508 64.46679688 C-0.50825518 64.23018939 -5.72253392 63.74544205 -12.45703125 60.55078125 C-20.62767489 47.71716381 -20.1164132 32.63869121 -18.0078125 18.0078125 C-14.62878529 6.90256922 -11.10524328 3.37902721 0 0 Z " fill="#959595" transform="translate(288.45703125,325.44921875)"/>
<path d="M0 0 C14.64010307 -4.43879908 29.32342907 -4.48989086 43.96240234 -0.03564453 C51.24193923 4.45343475 52.67595286 7.77061215 55.1484375 15.89648438 C57.2570382 30.52736309 57.76829989 45.60583568 49.59765625 58.43945312 C33.50431647 66.07369207 12.49620968 61.72657123 -4.40234375 58.43945312 C-10.53452172 52.30727515 -8.86639982 31.02940713 -9.31835938 22.82543945 C-8.7698206 5.58338904 -8.7698206 5.58338904 0 0 Z " fill="#959595" transform="translate(1770.40234375,272.560546875)"/>
<path d="M0 0 C14.63087871 -2.1086007 29.70935131 -2.61986239 42.54296875 5.55078125 C50.1772077 21.64412103 45.83008685 42.65222782 42.54296875 59.55078125 C36.41079078 65.68295922 15.13292275 64.01483732 6.92895508 64.46679688 C-0.50825518 64.23018939 -5.72253392 63.74544205 -12.45703125 60.55078125 C-20.62767489 47.71716381 -20.1164132 32.63869121 -18.0078125 18.0078125 C-14.62878529 6.90256922 -11.10524328 3.37902721 0 0 Z " fill="#959595" transform="translate(12.45703125,270.44921875)"/>
<path d="M0 0 C14.55102815 -2.16357542 28.99468508 -2.46628653 41.765625 5.5859375 C49.70682398 18.65158539 49.36600437 33.36195097 47.25 48.125 C44.81835835 56.19006026 43.40180817 59.55430526 36.22851562 64.07714844 C21.92062793 68.55227517 7.61062207 68.55227517 -6.69726562 64.07714844 C-13.87055817 59.55430526 -15.28710835 56.19006026 -17.71875 48.125 C-20.48076 28.8548654 -21.52600606 6.73276218 0 0 Z " fill="#979797" transform="translate(619.234375,-5.5859375)"/>
<path d="M0 0 C5 0 5 0 12 6 C12 6.66 12 7.32 12 8 C14.475 8.99 14.475 8.99 17 10 C19.64 11.98 22.28 13.96 25 16 C28.32145699 17.36264902 31.65553399 18.69484253 35 20 C40.75 22.9375 40.75 22.9375 45 26 C43 31 43 31 37 38 C35.35 40.64 33.7 43.28 32 46 C28.00993836 51.00793451 24.01039714 56.00833547 20 61 C19.01 62.65 18.02 64.3 17 66 C16.34 66 15.68 66 15 66 C14.34 67.65 13.68 69.3 13 71 C12.67 71.66 12.34 72.32 12 73 C4.29344995 71.07336249 -0.02296143 63.806545 -5 58 C-6.65 57.01 -8.3 56.02 -10 55 C-11.60875 54.030625 -13.2175 53.06125 -14.875 52.0625 C-18.89006877 49.66325159 -22.93896312 47.3205925 -27 45 C-22.42407611 33.56019028 -14.8508352 23.19659192 -8 13 C-5.98863515 9.67351198 -3.98670402 6.34127494 -2 3 C-1.34 2.01 -0.68 1.02 0 0 Z " fill="#8E8682" transform="translate(662,887)"/>
<path d="M0 0 C1.65 0 3.3 0 5 0 C5.33 0.99 5.66 1.98 6 3 C8.475 3.99 8.475 3.99 11 5 C12.69125 6.2375 14.3825 7.475 16.125 8.75 C21.86878892 13.11089428 21.86878892 13.11089428 28.125 16.25 C29.73375 17.1575 31.3425 18.065 33 19 C33.495 20.98 33.495 20.98 34 23 C30.1875 28.75 30.1875 28.75 26 34 C25.34 34 24.68 34 24 34 C23.34 35.65 22.68 37.3 22 39 C19.42975417 42.73488847 16.76850016 46.40960136 14 50 C13.34 50 12.68 50 12 50 C11.34 51.32 10.68 52.64 10 54 C5.40448688 58.3957082 1.93151505 61.62739398 -4 64 C-13 63 -13 63 -21 57 C-23 54 -23 54 -23 46 C-19.8663191 37.64351761 -16.03810505 29.95566964 -12 22 C-10.9275 19.834375 -9.855 17.66875 -8.75 15.4375 C-6.06795948 10.13437442 -3.30014191 4.95021286 0 0 Z " fill="#918985" transform="translate(461,1215)"/>
</svg>
